<?xml version="1.0" encoding="UTF-8" standalone="no"?>
<!-- Created with Inkscape (http://www.inkscape.org/) -->

<svg
   xmlns:dc="http://purl.org/dc/elements/1.1/"
   xmlns:cc="http://creativecommons.org/ns#"
   xmlns:rdf="http://www.w3.org/1999/02/22-rdf-syntax-ns#"
   xmlns:svg="http://www.w3.org/2000/svg"
   xmlns="http://www.w3.org/2000/svg"
   xmlns:xlink="http://www.w3.org/1999/xlink"
   xmlns:sodipodi="http://sodipodi.sourceforge.net/DTD/sodipodi-0.dtd"
   xmlns:inkscape="http://www.inkscape.org/namespaces/inkscape"
   width="210mm"
   height="297mm"
   viewBox="0 0 210 297"
   version="1.1"
   id="svg8"
   inkscape:version="0.92.5 (2060ec1f9f, 2020-04-08)"
   sodipodi:docname="otapick_logo3.svg">
  <defs
     id="defs2">
    <linearGradient
       id="linearGradient911"
       inkscape:collect="always">
      <stop
         id="stop907"
         offset="0"
         style="stop-color:#00ffff;stop-opacity:1" />
      <stop
         id="stop909"
         offset="1"
         style="stop-color:#ff00ff;stop-opacity:0.38942307" />
    </linearGradient>
    <linearGradient
       inkscape:collect="always"
       id="linearGradient877">
      <stop
         style="stop-color:#47ff56;stop-opacity:1"
         offset="0"
         id="stop873" />
      <stop
         style="stop-color:#ff00ff;stop-opacity:0.45673078"
         offset="1"
         id="stop875" />
    </linearGradient>
    <inkscape:path-effect
       effect="lattice2"
       gridpoint0="34,62.801509"
       gridpoint1="164,62.801509"
       gridpoint2="34,189.9105"
       gridpoint3="164,189.9105"
       gridpoint4="66.5,62.801509"
       gridpoint5="131.5,62.801509"
       gridpoint6="66.5,189.9105"
       gridpoint7="125.0744,190.28848"
       gridpoint8x9="99,62.801509"
       gridpoint10x11="99,189.9105"
       gridpoint12="34,94.578757"
       gridpoint13="164,94.578757"
       gridpoint14="34,158.13325"
       gridpoint15="164,158.13325"
       gridpoint16="66.5,94.578757"
       gridpoint17="150.02083,70.010305"
       gridpoint18="83.130952,185.72551"
       gridpoint19="122.80655,180.05587"
       gridpoint20x21="135.66369,96.468638"
       gridpoint22x23="82.747024,126.38325"
       gridpoint24x26="34,126.356"
       gridpoint25x27="164,126.356"
       gridpoint28x30="66.5,148.6566"
       gridpoint29x31="125.0744,174.73695"
       gridpoint32x33x34x35="110.71726,98.385763"
       id="path-effect868"
       is_visible="true"
       horizontal_mirror="false"
       vertical_mirror="false"
       live_update="true" />
    <linearGradient
       inkscape:collect="always"
       xlink:href="#linearGradient877"
       id="linearGradient879"
       x1="136.43352"
       y1="157.28891"
       x2="164"
       y2="61.355469"
       gradientUnits="userSpaceOnUse"
       gradientTransform="rotate(-44.923391,70.140692,112.35704)" />
    <clipPath
       clipPathUnits="userSpaceOnUse"
       id="clipPath899">
      <rect
         style="opacity:1;fill:none;fill-opacity:0.56730772;stroke-width:2.64583325;stroke-miterlimit:4;stroke-dasharray:none"
         id="rect901"
         width="116.41665"
         height="223.38391"
         x="100.1637"
         y="7.0922618" />
    </clipPath>
    <linearGradient
       inkscape:collect="always"
       xlink:href="#linearGradient911"
       id="linearGradient905"
       gradientUnits="userSpaceOnUse"
       gradientTransform="rotate(-44.923391,70.140692,112.35704)"
       x1="131.9259"
       y1="160.43069"
       x2="164"
       y2="61.355469" />
  </defs>
  <sodipodi:namedview
     id="base"
     pagecolor="#ffffff"
     bordercolor="#666666"
     borderopacity="1.0"
     inkscape:pageopacity="0.0"
     inkscape:pageshadow="2"
     inkscape:zoom="0.7"
     inkscape:cx="435.53762"
     inkscape:cy="556.42635"
     inkscape:document-units="mm"
     inkscape:current-layer="layer1"
     showgrid="false"
     inkscape:window-width="1920"
     inkscape:window-height="1017"
     inkscape:window-x="-8"
     inkscape:window-y="-8"
     inkscape:window-maximized="1" />
  <metadata
     id="metadata5">
    <rdf:RDF>
      <cc:Work
         rdf:about="">
        <dc:format>image/svg+xml</dc:format>
        <dc:type
           rdf:resource="http://purl.org/dc/dcmitype/StillImage" />
        <dc:title></dc:title>
      </cc:Work>
    </rdf:RDF>
  </metadata>
  <g
     inkscape:label="レイヤー 1"
     inkscape:groupmode="layer"
     id="layer1">
    <path
       style="color:#000000;font-style:normal;font-variant:normal;font-weight:normal;font-stretch:normal;font-size:medium;line-height:normal;font-family:sans-serif;font-variant-ligatures:normal;font-variant-position:normal;font-variant-caps:normal;font-variant-numeric:normal;font-variant-alternates:normal;font-feature-settings:normal;text-indent:0;text-align:start;text-decoration:none;text-decoration-line:none;text-decoration-style:solid;text-decoration-color:#000000;letter-spacing:normal;word-spacing:normal;text-transform:none;writing-mode:lr-tb;direction:ltr;text-orientation:mixed;dominant-baseline:auto;baseline-shift:baseline;text-anchor:start;white-space:normal;shape-padding:0;clip-rule:nonzero;display:inline;overflow:visible;visibility:visible;opacity:1;isolation:auto;mix-blend-mode:normal;color-interpolation:sRGB;color-interpolation-filters:linearRGB;solid-color:#000000;solid-opacity:1;vector-effect:none;fill:url(#linearGradient879);fill-opacity:1;fill-rule:nonzero;stroke:none;stroke-width:2.89100933;stroke-linecap:butt;stroke-linejoin:miter;stroke-miterlimit:4;stroke-dasharray:none;stroke-dashoffset:0;stroke-opacity:1;color-rendering:auto;image-rendering:auto;shape-rendering:auto;text-rendering:auto;enable-background:accumulate"
       d="m 8.4902787,101.81194 c -0.00184,0.002 2.0268453,2.061 2.0357233,2.05222 0.0048,-0.005 0.0037,-0.004 0.0069,-0.007 0.02052,-0.0203 0.01835,-0.0183 0.04425,-0.0441 0.05408,-0.054 0.155502,-0.15508 0.309772,-0.30895 0.316804,-0.31598 0.838022,-0.83578 1.535034,-1.53093 1.394024,-1.3903 3.491992,-3.48276 6.069606,-6.053397 C 23.646834,90.778557 30.720852,83.725647 37.913271,76.552861 52.298082,62.207263 67.163544,47.382962 68.117508,46.43211 87.289176,27.310089 102.62387,12.012256 102.62387,12.012256 l -2.04125,-2.0467117 c 0,0 -15.336093,15.2964827 -34.507805,34.4184737 -0.958688,0.955632 -15.818002,15.776557 -30.202824,30.122164 -7.192411,7.172803 -14.266376,14.225734 -19.421664,19.366972 -2.57762,2.570643 -4.675558,4.663075 -6.069606,6.053397 -0.6970241,0.695159 -1.2181642,1.214889 -1.5350336,1.530939 -0.1543022,0.1539 -0.2554013,0.25469 -0.3097726,0.30894 -0.027833,0.0277 -0.060098,0.0597 -0.038723,0.0386 -0.00127,0.001 -0.0017,0.002 -0.00276,0.003 -0.00156,0.002 -0.00305,0.003 -0.00418,0.004 z M 73.543636,42.291988 C 63.998574,51.892541 54.923149,61.657667 42.775827,74.577528 30.884208,87.225424 20.917106,97.640191 12.465382,105.65387 l 1.988695,2.09912 C 22.989752,99.659714 32.980889,89.214717 44.882072,76.556656 57.035001,63.63083 66.095857,53.885749 75.595947,44.330422 84.528501,35.345923 91.183311,29.26763 97.008791,24.141587 c 5.534159,-4.869707 9.425619,-8.131565 9.425619,-8.131565 l -1.85595,-2.214955 c 0,0 -3.92129,3.286159 -9.479548,8.177067 -5.856598,5.153425 -12.576047,11.288408 -21.555276,20.319854 z m 7.29168,-0.759507 C 71.544373,50.555771 62.981004,60.248045 49.52686,75.336476 36.687498,89.735444 25.398997,102.06658 16.439096,109.5027 l 1.846275,2.22737 C 27.532894,104.05524 38.831162,91.676202 51.684277,77.261808 65.142123,62.169228 73.66497,52.526105 82.850286,43.605398 90.745108,35.938009 97.024834,31.045624 101.81643,27.139411 c 4.86516,-3.96619 8.55298,-7.244705 8.55298,-7.244705 l -1.92094,-2.158416 c 0,0 -3.64387,3.236591 -8.458957,7.16196 -4.748531,3.871109 -11.150369,8.860976 -19.154197,16.634231 z m 0.575372,6.598134 c -2.295036,2.326164 -4.768985,4.957076 -7.512653,7.991869 -5.63375,6.231534 -11.174053,12.786085 -17.84751,20.624499 C 42.504429,92.657765 30.172033,106.68205 20.447358,113.33638 l 1.634758,2.38591 c 10.33435,-7.07151 22.607596,-21.172596 36.168709,-37.101016 6.677184,-7.842792 12.201183,-14.376949 17.7908,-20.559667 5.441887,-6.019314 9.784176,-10.398467 13.73128,-13.942868 7.695081,-6.909993 12.761415,-9.745134 17.104305,-13.251968 4.26898,-3.447141 7.52401,-7.189447 7.52401,-7.189447 l -2.17955,-1.897745 c 0,0 -3.12839,3.582033 -7.16032,6.837768 -4.07111,3.287372 -9.347779,6.281647 -17.219068,13.349869 -2.021665,1.815405 -4.136557,3.837235 -6.431594,6.163399 z m 6.689967,0.982598 c -2.29161,2.217812 -4.779216,4.810786 -7.558105,7.896519 C 74.832066,63.350771 69.181481,70.305073 62.277834,78.762003 48.261388,95.932074 35.152497,111.39866 24.479095,117.17148 l 1.37629,2.54162 c 11.670658,-6.31219 24.631728,-21.934266 38.66286,-39.122328 6.905941,-8.45974 12.530593,-15.381671 18.172045,-21.646054 5.486812,-6.09267 9.769794,-10.174656 13.586671,-13.213857 7.439239,-5.923519 11.935359,-7.218656 15.812199,-10.578566 3.76676,-3.264509 6.37161,-7.780711 6.37161,-7.780711 l -2.49365,-1.460359 c 0,0 -2.51406,4.234765 -5.76987,7.056454 -3.27407,2.837512 -8.00573,4.358078 -15.720938,10.501343 -1.989562,1.584196 -4.084054,3.426386 -6.375657,5.644191 z m 6.147331,1.918243 c -2.307907,2.097047 -4.814778,4.630049 -7.617262,7.729325 C 80.869336,65.132319 75.175099,72.394314 68.154982,81.33865 53.892421,99.510639 40.2785,116.14533 28.516338,121.02039 l 1.10681,2.66971 c 13.127938,-5.44113 26.530719,-22.3762 40.806828,-40.565448 7.020609,-8.944962 12.680902,-16.161536 18.344339,-22.424748 5.504404,-6.087337 9.766031,-9.847428 13.515145,-12.394982 3.65938,-2.486577 6.49253,-3.739468 8.88529,-4.790091 2.39278,-1.05063 4.43887,-1.914044 6.18243,-3.669521 3.34711,-3.369933 5.12451,-8.818181 5.12451,-8.818181 l -2.73048,-0.945543 c 0,0 -1.88684,5.151112 -4.44495,7.726666 -1.27269,1.281436 -2.89342,2.005016 -5.29358,3.058893 -2.40017,1.053877 -5.48606,2.423312 -9.3483,5.047736 -2.000106,1.359087 -4.108478,3.019521 -6.416394,5.116575 z m -2.117102,10.27646 C 86.344626,67.647777 80.67728,75.125518 73.643361,84.429916 59.342736,103.34664 45.491455,120.87505 32.54389,124.88725 l 0.856713,2.7619 c 14.595901,-4.52299 28.236878,-22.54331 42.549575,-41.476003 7.032479,-9.302494 12.661024,-16.718921 18.31737,-22.916441 5.494697,-6.020403 9.755432,-9.448946 13.491922,-11.54704 3.65735,-2.053651 6.45074,-2.846333 8.80216,-3.559673 2.35142,-0.71334 4.45105,-1.396894 6.01488,-3.336902 1.48794,-1.84588 2.37707,-4.322926 2.98197,-6.380699 0.6049,-2.057775 0.8861,-3.724938 0.8861,-3.724938 l -2.85126,-0.480287 c 0,0 -0.25374,1.504256 -0.80832,3.390827 -0.55457,1.886572 -1.44995,4.127134 -2.45997,5.380122 -0.98854,1.226329 -2.29128,1.683016 -4.60353,2.384476 -2.31225,0.701453 -5.44408,1.599096 -9.37702,3.807496 -4.09027,2.296743 -8.585627,5.951402 -14.213596,12.117828 z m 4.901176,3.276925 C 91.247724,70.844934 85.665475,78.447919 78.70989,87.988802 64.560364,107.39747 50.728444,125.55694 36.556225,128.77203 l 0.63843,2.81962 c 15.994974,-3.62861 29.691046,-22.47651 43.851109,-41.899628 6.952237,-9.536291 12.489894,-17.063067 18.110523,-23.145981 5.458083,-5.907019 9.733363,-9.015765 13.510153,-10.72941 3.63569,-1.649643 6.50924,-1.850501 8.96345,-2.299931 2.5569,-0.468243 4.64453,-1.406386 6.02208,-3.562006 1.32122,-2.067513 1.90031,-4.864494 2.26494,-7.224112 0.36465,-2.359617 0.44906,-4.287624 0.44906,-4.287624 l -2.88903,-0.125386 c 0,0 -0.0781,1.779267 -0.41687,3.971385 -0.33875,2.192124 -1.00271,4.792911 -1.84361,6.108774 -0.94189,1.473901 -1.84631,1.859176 -4.10757,2.273275 -2.18457,0.400045 -5.55346,0.660551 -9.63632,2.513083 -4.22785,1.918311 -8.81454,5.31205 -14.44051,11.400752 z m 4.29953,3.932137 C 95.576262,74.661612 90.135565,82.308421 83.339434,91.966942 76.424113,101.79487 69.592272,111.40483 62.533625,118.8244 c -7.05864,7.41958 -14.305287,12.58884 -21.989937,13.84344 l 0.46713,2.85253 c 8.635454,-1.40982 16.343478,-7.05656 23.61799,-14.70305 7.274512,-7.64648 14.155676,-17.35278 21.075557,-27.187168 6.790981,-9.651209 12.178928,-17.203591 17.736245,-23.13681 5.39577,-5.760774 9.69008,-8.578039 13.55887,-9.986331 3.70976,-1.350416 6.77293,-1.266721 9.34779,-1.560546 1.34429,-0.153399 2.54025,-0.418245 3.60732,-1.015788 1.06707,-0.597542 1.93391,-1.53818 2.55313,-2.739385 1.20176,-2.33131 1.51031,-5.354079 1.664,-8.133654 0.15244,-2.756652 0.0976,-4.803229 0.0976,-4.803229 l -2.88931,0.079 c 0,0 0.0515,1.922347 -0.0945,4.562929 -0.14589,2.6382 -0.55883,5.437072 -1.34896,6.969837 -0.41951,0.813801 -0.8251,1.223487 -1.39418,1.542169 -0.56907,0.318675 -1.3733,0.53512 -2.5241,0.66644 -2.21268,0.252498 -5.77846,0.176553 -10.00677,1.715724 -4.39115,1.598442 -9.08118,4.74901 -14.67991,10.726474 z m 3.7118,4.518295 c -5.699695,6.004532 -10.952324,13.615968 -17.5196,23.27935 -6.68384,9.834867 -13.310051,19.493717 -20.3487,26.873257 -7.038649,7.37954 -14.42665,12.42404 -22.663284,13.38402 l 0.335905,2.87031 c 9.191899,-1.07131 17.137505,-6.6265 24.418412,-14.26004 7.280914,-7.63353 13.961111,-17.40093 20.648883,-27.241596 6.560509,-9.653412 11.756534,-17.155641 17.224944,-22.916523 5.3098,-5.593785 9.62548,-8.165343 13.63261,-9.353703 3.82221,-1.133516 7.16319,-0.864711 9.90788,-1.101281 1.43897,-0.124033 2.72422,-0.402251 3.84496,-1.067951 1.12072,-0.665693 1.98806,-1.719693 2.57147,-3.050099 1.13381,-2.585458 1.27837,-5.944951 1.26886,-9.033262 -0.009,-3.067049 -0.19727,-5.331189 -0.19727,-5.331189 l -2.88262,0.240592 c 0,0 0.18019,2.145167 0.18929,5.099163 0.009,2.950382 -0.25981,6.113027 -1.02697,7.862432 -0.40503,0.923619 -0.82207,1.383968 -1.39996,1.727225 -0.57788,0.343263 -1.40694,0.567693 -2.61525,0.671847 -2.30275,0.198475 -6.1065,-0.08677 -10.48256,1.210998 -4.56367,1.353411 -9.36029,4.293076 -14.907,10.13645 z m 3.15455,5.027162 c -5.61883,5.849607 -10.646317,13.358107 -16.92803,22.921065 -6.026231,9.174 -12.505757,19.09085 -19.692303,26.58549 -7.307566,7.62085 -14.786758,12.2077 -23.115644,12.9111 l 0.241979,2.88123 c 9.23697,-0.78009 17.369999,-5.87516 24.960545,-13.79113 7.465183,-7.78522 13.999267,-17.83136 20.021554,-26.99937 6.273491,-9.550438 11.239039,-16.930172 16.596019,-22.507192 5.20321,-5.416925 9.54496,-7.800075 13.72585,-8.85639 4.04919,-1.023053 7.56553,-0.647549 10.60096,-0.931863 1.55657,-0.145796 2.94138,-0.481447 4.12415,-1.236068 1.18274,-0.75462 2.07449,-1.920388 2.66169,-3.382821 1.14317,-2.847082 1.1968,-6.530318 1.07804,-9.902207 -0.11791,-3.348198 -0.40655,-5.803795 -0.40655,-5.803795 l -2.87308,0.338667 c 0,0 0.27648,2.334057 0.3903,5.566228 0.11376,3.230056 -0.0659,6.717907 -0.87207,8.725806 -0.42263,1.052587 -0.89246,1.61121 -1.53292,2.019839 -0.64047,0.40863 -1.54069,0.674218 -2.83917,0.795844 -2.53643,0.237575 -6.4534,-0.153036 -11.04023,1.005847 -4.73555,1.196451 -9.62985,3.963755 -15.10109,9.65972 z m 2.6402,5.457372 c -5.51506,5.688497 -10.28931,13.033676 -16.242309,22.399943 -5.710475,8.98464 -11.850632,18.7114 -18.873962,26.02587 -7.142214,7.43827 -14.639701,11.88042 -23.330473,12.44676 l 0.188117,2.88255 c 9.567991,-0.62351 17.779583,-5.56973 25.227851,-13.32674 7.324649,-7.62827 13.522571,-17.50147 19.228124,-26.47838 5.943512,-9.351317 10.651402,-16.546318 15.878482,-21.937769 5.08002,-5.239761 9.44996,-7.498753 13.82621,-8.512374 4.23923,-0.981899 8.07823,-0.629661 11.3759,-1.05098 1.6904,-0.215968 3.18322,-0.651021 4.43939,-1.509092 1.25616,-0.858078 2.20155,-2.127592 2.83202,-3.720958 1.22993,-3.108553 1.26925,-7.089197 1.09983,-10.704574 -0.16804,-3.585988 -0.52204,-6.196177 -0.52204,-6.196177 l -2.86624,0.389765 c 0,0 0.33805,2.480053 0.50029,5.942035 0.1623,3.463516 0.005,7.22033 -0.89936,9.506075 -0.47082,1.189963 -1.02755,1.885889 -1.77512,2.396545 -0.74755,0.51065 -1.75835,0.847798 -3.17507,1.028797 -2.76285,0.352977 -6.9162,0.0025 -11.66183,1.101686 -4.90128,1.135233 -9.87523,3.773447 -15.24981,9.317018 z m 2.18815,5.808944 c -5.39191,5.52872 -9.89996,12.659759 -15.495673,21.743549 -5.367452,8.71322 -11.127085,18.14516 -17.926861,25.22473 -6.914727,7.19928 -14.357057,11.49296 -23.298115,12.00625 l 0.164632,2.88666 c 9.779819,-0.56145 17.977149,-5.35331 25.217609,-12.89171 7.120414,-7.41342 12.94288,-17.00795 18.30454,-25.71175 5.585078,-9.06652 10.018918,-16.02576 15.102758,-21.238604 4.94523,-5.070708 9.34479,-7.270386 13.92404,-8.331323 4.43683,-1.027937 8.61198,-0.813065 12.1885,-1.455922 3.667,-0.659135 6.44938,-2.492034 7.86896,-5.928078 1.38765,-3.358701 1.48746,-7.589573 1.32864,-11.396187 -0.15725,-3.769255 -0.53822,-6.491746 -0.53822,-6.491746 l -2.86487,0.402204 c 0,0 0.36215,2.576533 0.51374,6.209974 0.15186,3.640095 -0.051,7.605947 -1.11156,10.172849 -1.09762,2.65674 -2.59215,3.626604 -5.70802,4.186675 -3.03371,0.545295 -7.43466,0.349326 -12.32942,1.48336 -5.05675,1.171569 -10.08072,3.735619 -15.34068,9.129069 z m 1.80658,6.081885 c -5.25399,5.376674 -9.49035,12.246354 -14.71571,20.973944 -5.01206,8.37131 -10.371134,17.41377 -16.89661,24.21379 -6.635031,6.91419 -13.949603,11.07091 -23.01724,11.61855 l 0.174304,2.88529 c 9.863587,-0.59572 17.952178,-5.2315 24.928438,-12.50126 6.861324,-7.14999 12.285473,-16.37092 17.290908,-24.73116 5.21368,-8.70809 9.37001,-15.38998 14.30343,-20.438652 4.80467,-4.916974 9.23498,-7.125809 14.01242,-8.322918 4.62976,-1.160127 9.13349,-1.189906 12.99317,-2.126047 3.95904,-0.960254 6.92164,-3.029299 8.56191,-6.690884 1.60638,-3.585941 1.84258,-8.009989 1.75612,-11.946664 -0.0854,-3.889827 -0.45373,-6.675311 -0.45373,-6.675311 l -2.86623,0.378726 c 0,0 0.34717,2.620807 0.4293,6.360398 0.0824,3.75234 -0.23113,7.861848 -1.5031,10.70127 -1.31011,2.924548 -3.17407,4.230176 -6.60551,5.062457 -3.33701,0.809376 -7.98354,0.872418 -13.01392,2.132927 -5.19789,1.302472 -10.24617,3.853838 -15.37795,9.105544 z m 1.51632,6.266554 c -5.1071,5.23768 -9.08408,11.81713 -13.94256,20.12839 -4.660174,7.97202 -9.612748,16.54767 -15.8247,23.03441 -6.314964,6.59428 -13.431829,10.62146 -22.494763,11.29055 l 0.211594,2.88395 c 9.813249,-0.72448 17.704902,-5.21328 24.37143,-12.17468 6.557931,-6.84801 11.581519,-15.61601 16.234229,-23.57524 4.84579,-8.28957 8.7308,-14.66309 13.51368,-19.56825 4.66518,-4.784491 9.12439,-7.064769 14.08444,-8.48303 4.80756,-1.374665 9.62019,-1.75516 13.75676,-3.042059 4.24577,-1.320877 7.4136,-3.635438 9.32394,-7.489497 1.87382,-3.780413 2.31454,-8.328639 2.36015,-12.328409 0.045,-3.942601 -0.26581,-6.741358 -0.26581,-6.741358 l -2.87444,0.320704 c 0,0 0.29142,2.609737 0.24834,6.386396 -0.0433,3.796218 -0.5255,7.985546 -2.05879,11.07895 -1.5733,3.174096 -3.82856,4.842979 -7.59288,6.014071 -3.65758,1.137887 -8.54343,1.549318 -13.69182,3.021427 -5.32024,1.521257 -10.36324,4.120367 -15.3588,9.243675 z m 1.32698,6.36712 c -4.9585,5.1159 -8.69405,11.38174 -13.20663,19.23168 -4.32865,7.52999 -8.88966,15.57767 -14.762296,21.72934 -5.968295,6.25187 -12.829131,10.16802 -21.752792,11.04157 l 0.282035,2.87714 c 9.625837,-0.94228 17.237942,-5.29733 23.561785,-11.92165 6.222471,-6.51812 10.855748,-14.77 15.175978,-22.28536 4.49887,-7.82607 8.13756,-13.87301 12.77775,-18.66049 4.53421,-4.67813 9.01797,-7.09055 14.13596,-8.80751 4.96138,-1.664436 10.04333,-2.482121 14.44051,-4.162573 4.51674,-1.72614 7.90938,-4.298084 10.12467,-8.304641 2.17563,-3.934809 2.88315,-8.528909 3.11587,-12.522128 0.22875,-3.92535 0.0145,-6.687117 0.0145,-6.687117 l -2.88259,0.224025 c 0,0 0.20013,2.549206 -0.0181,6.293501 -0.21978,3.771318 -0.9235,7.971924 -2.75928,11.292083 -1.87827,3.397006 -4.53063,5.438711 -8.62723,7.004292 -3.97804,1.520266 -9.08275,2.361891 -14.3272,4.12129 -5.41921,1.818008 -10.43486,4.524308 -15.29291,9.536548 z m 1.2593,6.37946 c -4.81671,5.01447 -8.35288,10.95521 -12.55907,18.31552 -4.03532,7.06131 -8.236285,14.54043 -13.759178,20.34823 -5.610794,5.90025 -12.158619,9.72522 -20.809306,10.87848 l 0.381487,2.86623 c 9.301558,-1.24003 16.560505,-5.48169 22.522995,-11.75179 5.868872,-6.17162 10.149812,-13.86231 14.175632,-20.907 4.19136,-7.33436 7.61878,-13.0476 12.13294,-17.74709 4.42002,-4.60149 8.92061,-7.20317 14.16423,-9.28533 5.08384,-2.01871 10.38705,-3.34289 15.01812,-5.44481 4.76084,-2.160801 8.38363,-4.991359 10.92262,-9.105967 2.49575,-4.044556 3.51868,-8.606704 3.98594,-12.523737 0.45793,-3.838733 0.37883,-6.512617 0.37883,-6.512617 l -2.89069,0.08867 c 0,0 0.076,2.435952 -0.35893,6.081747 -0.43909,3.68089 -1.40841,7.835575 -3.57557,11.347609 -2.21266,3.585782 -5.24793,5.991793 -9.65745,7.993141 -4.27997,1.942564 -9.57541,3.278174 -14.88961,5.388364 -5.49013,2.18004 -10.45571,5.04899 -15.18299,9.97035 z m 1.32431,6.30083 c -4.69168,4.93561 -8.07562,10.55105 -12.03444,17.41162 -4.0086,6.94685 -7.88666,13.64715 -12.881708,18.949 -4.995045,5.30185 -11.055446,9.23537 -19.700207,10.804 l 0.515479,2.84569 c 9.256197,-1.67958 15.974603,-6.02784 21.288206,-11.66781 5.3136,-5.63997 9.27495,-12.5413 13.28294,-19.48708 3.94281,-6.83283 7.21047,-12.2213 11.62491,-16.86526 4.33161,-4.55684 8.84409,-7.39539 14.17471,-9.89436 5.16907,-2.42324 10.63152,-4.29925 15.45778,-6.83496 4.96555,-2.6089 8.80846,-5.69121 11.67218,-9.867324 2.81654,-4.107314 4.18352,-8.555257 4.92204,-12.329127 0.72138,-3.686219 0.81073,-6.228921 0.81073,-6.228921 l -2.88906,-0.09777 c 0,0 -0.0764,2.283621 -0.75902,5.771852 -0.69121,3.532082 -1.95743,7.585791 -4.46899,11.248354 -2.56057,3.734028 -5.94821,6.482346 -10.63238,8.943396 -4.54488,2.38787 -9.98839,4.26751 -15.34169,6.77711 -5.52849,2.59173 -10.42881,5.66908 -15.04148,10.52159 z m 1.53861,6.12572 c -4.59473,4.88068 -7.89438,10.18266 -11.68526,16.55306 -7.66949,12.88817 -14.447624,24.45477 -30.65354,28.41733 l 0.688153,2.80862 c 17.298175,-4.22961 24.783767,-16.86606 32.449327,-29.74765 3.77382,-6.34173 6.95324,-11.42709 11.3048,-16.04948 4.27884,-4.54514 8.79592,-7.66068 14.17014,-10.60976 5.21249,-2.86033 10.76127,-5.31138 15.7304,-8.27643 5.11669,-3.05309 9.15201,-6.36894 12.3222,-10.559756 6.18364,-8.174393 7.16256,-17.810357 7.16256,-17.810357 l -2.8736,-0.303529 c 0,0 -0.98343,8.955134 -6.59301,16.370663 -2.90251,3.836939 -6.59624,6.895699 -11.4981,9.820599 -4.75439,2.83691 -10.28315,5.28559 -15.64056,8.22546 -5.52991,3.03451 -10.35852,6.35463 -14.88351,11.16123 z m 1.91323,5.85967 c -4.53854,4.85033 -7.83347,9.86061 -11.55716,15.77155 -7.52785,11.94958 -13.996803,22.42676 -28.895303,27.28167 l 0.894022,2.74952 c 15.838897,-5.16135 22.926681,-16.5518 30.447861,-28.49079 3.70614,-5.88309 6.88683,-10.70212 11.22373,-15.33696 4.27243,-4.56594 8.78788,-7.98203 14.15876,-11.39284 5.21088,-3.30917 10.768,-6.33012 15.81241,-9.70158 5.19846,-3.47444 9.37313,-6.99157 12.81051,-11.15158 6.69505,-8.102546 8.55886,-16.797553 8.55886,-16.797553 l -2.82486,-0.608679 c 0,0 -1.74531,8.038418 -7.96334,15.563662 -3.21565,3.89166 -7.1429,7.21916 -12.1869,10.59032 -4.89021,3.2684 -10.43609,6.28436 -15.7585,9.66437 -5.49027,3.48662 -10.24383,7.07512 -14.72009,11.85889 z m 2.47167,5.49305 c -4.53702,4.84469 -7.92331,9.60072 -11.70266,15.10568 -7.63762,11.12486 -14.04178,20.64136 -27.444013,26.41354 l 1.144113,2.65733 c 14.16141,-6.09915 21.05511,-16.32282 28.6842,-27.43526 3.76271,-5.48071 7.04733,-10.08491 11.43014,-14.76491 4.32408,-4.61732 8.83726,-8.34682 14.1557,-12.2063 11.83587,-8.58906 20.42622,-13.31005 28.74962,-22.64838 7.08035,-7.943711 9.81676,-15.588812 9.81676,-15.588812 l -2.72354,-0.971778 c 0,0 -2.53376,7.099337 -9.25064,14.63526 -7.98633,8.96015 -16.32701,13.55297 -28.29055,22.23467 -5.40595,3.92298 -10.08928,7.78532 -14.56913,12.56896 z m 3.22636,5.03003 c -4.07425,4.31486 -7.77213,8.85228 -12.18396,14.58989 -8.04598,10.46384 -14.66875,19.21482 -26.428226,25.88319 l 1.427423,2.51545 c 12.300433,-6.97513 19.255983,-16.1829 27.293783,-26.63609 8.77154,-11.40743 14.46212,-17.78848 26.16503,-27.36404 11.69057,-9.56548 19.66509,-14.94663 28.33587,-24.11149 7.28942,-7.70479 10.81212,-14.264419 10.81212,-14.264419 l -2.54762,-1.36514 c 0,0 -3.31551,6.193576 -10.36383,13.643539 -8.44995,8.93144 -16.2907,14.22438 -28.06761,23.86048 -5.91829,4.84248 -10.36874,8.93376 -14.44298,13.24863 z m 4.1773,4.45676 c -4.22583,4.36144 -8.23191,8.79692 -13.04948,14.28077 -8.80183,10.01915 -15.97192,18.25408 -25.988867,25.74843 l 1.730147,2.3156 c 10.30029,-7.70633 17.63454,-16.1432 26.43135,-26.15664 9.60721,-10.9359 15.85798,-17.57163 27.19739,-27.88608 11.43332,-10.39988 18.49745,-16.17992 27.27931,-25.11556 7.26736,-7.3946 11.42907,-12.932242 11.42907,-12.932242 l -2.31097,-1.736331 c 0,0 -4.03101,5.368283 -11.18008,12.642553 -8.67529,8.82718 -15.68471,14.56417 -27.16178,25.00385 -5.70262,5.18716 -10.15026,9.47423 -14.37609,13.83565 z m -35.291393,44.0766 2.041253,2.04671 c 8.50716,-8.4802 16.02398,-15.92836 26.26828,-26.06015 9.86496,-9.75656 18.87999,-18.66403 28.76021,-28.50133 9.84045,-9.79779 18.10456,-18.09548 25.47485,-25.53916 6.95466,-7.02394 11.5545,-11.71121 11.55449,-11.7112 l -2.06334,-2.024687 c 0,0 -4.59546,4.683037 -11.54619,11.702947 -7.3658,7.4392 -15.62398,15.73103 -25.45965,25.52398 -9.87567,9.83264 -18.88654,18.73598 -28.75197,28.49306 -10.24521,10.13268 -17.76716,17.58596 -26.277961,26.0698 z"
       id="path865"
       inkscape:connector-curvature="0"
       clip-path="url(#clipPath899)"
       transform="rotate(44.966307,215.94622,274.76984)" />
    <rect
       style="opacity:1;fill:none;fill-opacity:0.56730772;stroke-width:2.64583325;stroke-miterlimit:4;stroke-dasharray:none"
       id="rect885"
       width="97.139885"
       height="201.4613"
       x="3.0238097"
       y="7.0922618"
       ry="0" />
    <rect
       style="opacity:1;fill:none;fill-opacity:0.56730772;stroke-width:2.64583325;stroke-miterlimit:4;stroke-dasharray:none"
       id="rect891"
       width="76.729156"
       height="207.8869"
       x="100.1637"
       y="7.0922618" />
    <path
       transform="rotate(-134.78422,161.80973,50.908851)"
       clip-path="url(#clipPath899)"
       inkscape:connector-curvature="0"
       id="path903"
       d="m 8.4902787,101.81194 c -0.00184,0.002 2.0268453,2.061 2.0357233,2.05222 0.0048,-0.005 0.0037,-0.004 0.0069,-0.007 0.02052,-0.0203 0.01835,-0.0183 0.04425,-0.0441 0.05408,-0.054 0.155502,-0.15508 0.309772,-0.30895 0.316804,-0.31598 0.838022,-0.83578 1.535034,-1.53093 1.394024,-1.3903 3.491992,-3.48276 6.069606,-6.053397 C 23.646834,90.778557 30.720852,83.725647 37.913271,76.552861 52.298082,62.207263 67.163544,47.382962 68.117508,46.43211 87.289176,27.310089 102.62387,12.012256 102.62387,12.012256 l -2.04125,-2.0467117 c 0,0 -15.336093,15.2964827 -34.507805,34.4184737 -0.958688,0.955632 -15.818002,15.776557 -30.202824,30.122164 -7.192411,7.172803 -14.266376,14.225734 -19.421664,19.366972 -2.57762,2.570643 -4.675558,4.663075 -6.069606,6.053397 -0.6970241,0.695159 -1.2181642,1.214889 -1.5350336,1.530939 -0.1543022,0.1539 -0.2554013,0.25469 -0.3097726,0.30894 -0.027833,0.0277 -0.060098,0.0597 -0.038723,0.0386 -0.00127,0.001 -0.0017,0.002 -0.00276,0.003 -0.00156,0.002 -0.00305,0.003 -0.00418,0.004 z M 73.543636,42.291988 C 63.998574,51.892541 54.923149,61.657667 42.775827,74.577528 30.884208,87.225424 20.917106,97.640191 12.465382,105.65387 l 1.988695,2.09912 C 22.989752,99.659714 32.980889,89.214717 44.882072,76.556656 57.035001,63.63083 66.095857,53.885749 75.595947,44.330422 84.528501,35.345923 91.183311,29.26763 97.008791,24.141587 c 5.534159,-4.869707 9.425619,-8.131565 9.425619,-8.131565 l -1.85595,-2.214955 c 0,0 -3.92129,3.286159 -9.479548,8.177067 -5.856598,5.153425 -12.576047,11.288408 -21.555276,20.319854 z m 7.29168,-0.759507 C 71.544373,50.555771 62.981004,60.248045 49.52686,75.336476 36.687498,89.735444 25.398997,102.06658 16.439096,109.5027 l 1.846275,2.22737 C 27.532894,104.05524 38.831162,91.676202 51.684277,77.261808 65.142123,62.169228 73.66497,52.526105 82.850286,43.605398 90.745108,35.938009 97.024834,31.045624 101.81643,27.139411 c 4.86516,-3.96619 8.55298,-7.244705 8.55298,-7.244705 l -1.92094,-2.158416 c 0,0 -3.64387,3.236591 -8.458957,7.16196 -4.748531,3.871109 -11.150369,8.860976 -19.154197,16.634231 z m 0.575372,6.598134 c -2.295036,2.326164 -4.768985,4.957076 -7.512653,7.991869 -5.63375,6.231534 -11.174053,12.786085 -17.84751,20.624499 C 42.504429,92.657765 30.172033,106.68205 20.447358,113.33638 l 1.634758,2.38591 c 10.33435,-7.07151 22.607596,-21.172596 36.168709,-37.101016 6.677184,-7.842792 12.201183,-14.376949 17.7908,-20.559667 5.441887,-6.019314 9.784176,-10.398467 13.73128,-13.942868 7.695081,-6.909993 12.761415,-9.745134 17.104305,-13.251968 4.26898,-3.447141 7.52401,-7.189447 7.52401,-7.189447 l -2.17955,-1.897745 c 0,0 -3.12839,3.582033 -7.16032,6.837768 -4.07111,3.287372 -9.347779,6.281647 -17.219068,13.349869 -2.021665,1.815405 -4.136557,3.837235 -6.431594,6.163399 z m 6.689967,0.982598 c -2.29161,2.217812 -4.779216,4.810786 -7.558105,7.896519 C 74.832066,63.350771 69.181481,70.305073 62.277834,78.762003 48.261388,95.932074 35.152497,111.39866 24.479095,117.17148 l 1.37629,2.54162 c 11.670658,-6.31219 24.631728,-21.934266 38.66286,-39.122328 6.905941,-8.45974 12.530593,-15.381671 18.172045,-21.646054 5.486812,-6.09267 9.769794,-10.174656 13.586671,-13.213857 7.439239,-5.923519 11.935359,-7.218656 15.812199,-10.578566 3.76676,-3.264509 6.37161,-7.780711 6.37161,-7.780711 l -2.49365,-1.460359 c 0,0 -2.51406,4.234765 -5.76987,7.056454 -3.27407,2.837512 -8.00573,4.358078 -15.720938,10.501343 -1.989562,1.584196 -4.084054,3.426386 -6.375657,5.644191 z m 6.147331,1.918243 c -2.307907,2.097047 -4.814778,4.630049 -7.617262,7.729325 C 80.869336,65.132319 75.175099,72.394314 68.154982,81.33865 53.892421,99.510639 40.2785,116.14533 28.516338,121.02039 l 1.10681,2.66971 c 13.127938,-5.44113 26.530719,-22.3762 40.806828,-40.565448 7.020609,-8.944962 12.680902,-16.161536 18.344339,-22.424748 5.504404,-6.087337 9.766031,-9.847428 13.515145,-12.394982 3.65938,-2.486577 6.49253,-3.739468 8.88529,-4.790091 2.39278,-1.05063 4.43887,-1.914044 6.18243,-3.669521 3.34711,-3.369933 5.12451,-8.818181 5.12451,-8.818181 l -2.73048,-0.945543 c 0,0 -1.88684,5.151112 -4.44495,7.726666 -1.27269,1.281436 -2.89342,2.005016 -5.29358,3.058893 -2.40017,1.053877 -5.48606,2.423312 -9.3483,5.047736 -2.000106,1.359087 -4.108478,3.019521 -6.416394,5.116575 z m -2.117102,10.27646 C 86.344626,67.647777 80.67728,75.125518 73.643361,84.429916 59.342736,103.34664 45.491455,120.87505 32.54389,124.88725 l 0.856713,2.7619 c 14.595901,-4.52299 28.236878,-22.54331 42.549575,-41.476003 7.032479,-9.302494 12.661024,-16.718921 18.31737,-22.916441 5.494697,-6.020403 9.755432,-9.448946 13.491922,-11.54704 3.65735,-2.053651 6.45074,-2.846333 8.80216,-3.559673 2.35142,-0.71334 4.45105,-1.396894 6.01488,-3.336902 1.48794,-1.84588 2.37707,-4.322926 2.98197,-6.380699 0.6049,-2.057775 0.8861,-3.724938 0.8861,-3.724938 l -2.85126,-0.480287 c 0,0 -0.25374,1.504256 -0.80832,3.390827 -0.55457,1.886572 -1.44995,4.127134 -2.45997,5.380122 -0.98854,1.226329 -2.29128,1.683016 -4.60353,2.384476 -2.31225,0.701453 -5.44408,1.599096 -9.37702,3.807496 -4.09027,2.296743 -8.585627,5.951402 -14.213596,12.117828 z m 4.901176,3.276925 C 91.247724,70.844934 85.665475,78.447919 78.70989,87.988802 64.560364,107.39747 50.728444,125.55694 36.556225,128.77203 l 0.63843,2.81962 c 15.994974,-3.62861 29.691046,-22.47651 43.851109,-41.899628 6.952237,-9.536291 12.489894,-17.063067 18.110523,-23.145981 5.458083,-5.907019 9.733363,-9.015765 13.510153,-10.72941 3.63569,-1.649643 6.50924,-1.850501 8.96345,-2.299931 2.5569,-0.468243 4.64453,-1.406386 6.02208,-3.562006 1.32122,-2.067513 1.90031,-4.864494 2.26494,-7.224112 0.36465,-2.359617 0.44906,-4.287624 0.44906,-4.287624 l -2.88903,-0.125386 c 0,0 -0.0781,1.779267 -0.41687,3.971385 -0.33875,2.192124 -1.00271,4.792911 -1.84361,6.108774 -0.94189,1.473901 -1.84631,1.859176 -4.10757,2.273275 -2.18457,0.400045 -5.55346,0.660551 -9.63632,2.513083 -4.22785,1.918311 -8.81454,5.31205 -14.44051,11.400752 z m 4.29953,3.932137 C 95.576262,74.661612 90.135565,82.308421 83.339434,91.966942 76.424113,101.79487 69.592272,111.40483 62.533625,118.8244 c -7.05864,7.41958 -14.305287,12.58884 -21.989937,13.84344 l 0.46713,2.85253 c 8.635454,-1.40982 16.343478,-7.05656 23.61799,-14.70305 7.274512,-7.64648 14.155676,-17.35278 21.075557,-27.187168 6.790981,-9.651209 12.178928,-17.203591 17.736245,-23.13681 5.39577,-5.760774 9.69008,-8.578039 13.55887,-9.986331 3.70976,-1.350416 6.77293,-1.266721 9.34779,-1.560546 1.34429,-0.153399 2.54025,-0.418245 3.60732,-1.015788 1.06707,-0.597542 1.93391,-1.53818 2.55313,-2.739385 1.20176,-2.33131 1.51031,-5.354079 1.664,-8.133654 0.15244,-2.756652 0.0976,-4.803229 0.0976,-4.803229 l -2.88931,0.079 c 0,0 0.0515,1.922347 -0.0945,4.562929 -0.14589,2.6382 -0.55883,5.437072 -1.34896,6.969837 -0.41951,0.813801 -0.8251,1.223487 -1.39418,1.542169 -0.56907,0.318675 -1.3733,0.53512 -2.5241,0.66644 -2.21268,0.252498 -5.77846,0.176553 -10.00677,1.715724 -4.39115,1.598442 -9.08118,4.74901 -14.67991,10.726474 z m 3.7118,4.518295 c -5.699695,6.004532 -10.952324,13.615968 -17.5196,23.27935 -6.68384,9.834867 -13.310051,19.493717 -20.3487,26.873257 -7.038649,7.37954 -14.42665,12.42404 -22.663284,13.38402 l 0.335905,2.87031 c 9.191899,-1.07131 17.137505,-6.6265 24.418412,-14.26004 7.280914,-7.63353 13.961111,-17.40093 20.648883,-27.241596 6.560509,-9.653412 11.756534,-17.155641 17.224944,-22.916523 5.3098,-5.593785 9.62548,-8.165343 13.63261,-9.353703 3.82221,-1.133516 7.16319,-0.864711 9.90788,-1.101281 1.43897,-0.124033 2.72422,-0.402251 3.84496,-1.067951 1.12072,-0.665693 1.98806,-1.719693 2.57147,-3.050099 1.13381,-2.585458 1.27837,-5.944951 1.26886,-9.033262 -0.009,-3.067049 -0.19727,-5.331189 -0.19727,-5.331189 l -2.88262,0.240592 c 0,0 0.18019,2.145167 0.18929,5.099163 0.009,2.950382 -0.25981,6.113027 -1.02697,7.862432 -0.40503,0.923619 -0.82207,1.383968 -1.39996,1.727225 -0.57788,0.343263 -1.40694,0.567693 -2.61525,0.671847 -2.30275,0.198475 -6.1065,-0.08677 -10.48256,1.210998 -4.56367,1.353411 -9.36029,4.293076 -14.907,10.13645 z m 3.15455,5.027162 c -5.61883,5.849607 -10.646317,13.358107 -16.92803,22.921065 -6.026231,9.174 -12.505757,19.09085 -19.692303,26.58549 -7.307566,7.62085 -14.786758,12.2077 -23.115644,12.9111 l 0.241979,2.88123 c 9.23697,-0.78009 17.369999,-5.87516 24.960545,-13.79113 7.465183,-7.78522 13.999267,-17.83136 20.021554,-26.99937 6.273491,-9.550438 11.239039,-16.930172 16.596019,-22.507192 5.20321,-5.416925 9.54496,-7.800075 13.72585,-8.85639 4.04919,-1.023053 7.56553,-0.647549 10.60096,-0.931863 1.55657,-0.145796 2.94138,-0.481447 4.12415,-1.236068 1.18274,-0.75462 2.07449,-1.920388 2.66169,-3.382821 1.14317,-2.847082 1.1968,-6.530318 1.07804,-9.902207 -0.11791,-3.348198 -0.40655,-5.803795 -0.40655,-5.803795 l -2.87308,0.338667 c 0,0 0.27648,2.334057 0.3903,5.566228 0.11376,3.230056 -0.0659,6.717907 -0.87207,8.725806 -0.42263,1.052587 -0.89246,1.61121 -1.53292,2.019839 -0.64047,0.40863 -1.54069,0.674218 -2.83917,0.795844 -2.53643,0.237575 -6.4534,-0.153036 -11.04023,1.005847 -4.73555,1.196451 -9.62985,3.963755 -15.10109,9.65972 z m 2.6402,5.457372 c -5.51506,5.688497 -10.28931,13.033676 -16.242309,22.399943 -5.710475,8.98464 -11.850632,18.7114 -18.873962,26.02587 -7.142214,7.43827 -14.639701,11.88042 -23.330473,12.44676 l 0.188117,2.88255 c 9.567991,-0.62351 17.779583,-5.56973 25.227851,-13.32674 7.324649,-7.62827 13.522571,-17.50147 19.228124,-26.47838 5.943512,-9.351317 10.651402,-16.546318 15.878482,-21.937769 5.08002,-5.239761 9.44996,-7.498753 13.82621,-8.512374 4.23923,-0.981899 8.07823,-0.629661 11.3759,-1.05098 1.6904,-0.215968 3.18322,-0.651021 4.43939,-1.509092 1.25616,-0.858078 2.20155,-2.127592 2.83202,-3.720958 1.22993,-3.108553 1.26925,-7.089197 1.09983,-10.704574 -0.16804,-3.585988 -0.52204,-6.196177 -0.52204,-6.196177 l -2.86624,0.389765 c 0,0 0.33805,2.480053 0.50029,5.942035 0.1623,3.463516 0.005,7.22033 -0.89936,9.506075 -0.47082,1.189963 -1.02755,1.885889 -1.77512,2.396545 -0.74755,0.51065 -1.75835,0.847798 -3.17507,1.028797 -2.76285,0.352977 -6.9162,0.0025 -11.66183,1.101686 -4.90128,1.135233 -9.87523,3.773447 -15.24981,9.317018 z m 2.18815,5.808944 c -5.39191,5.52872 -9.89996,12.659759 -15.495673,21.743549 -5.367452,8.71322 -11.127085,18.14516 -17.926861,25.22473 -6.914727,7.19928 -14.357057,11.49296 -23.298115,12.00625 l 0.164632,2.88666 c 9.779819,-0.56145 17.977149,-5.35331 25.217609,-12.89171 7.120414,-7.41342 12.94288,-17.00795 18.30454,-25.71175 5.585078,-9.06652 10.018918,-16.02576 15.102758,-21.238604 4.94523,-5.070708 9.34479,-7.270386 13.92404,-8.331323 4.43683,-1.027937 8.61198,-0.813065 12.1885,-1.455922 3.667,-0.659135 6.44938,-2.492034 7.86896,-5.928078 1.38765,-3.358701 1.48746,-7.589573 1.32864,-11.396187 -0.15725,-3.769255 -0.53822,-6.491746 -0.53822,-6.491746 l -2.86487,0.402204 c 0,0 0.36215,2.576533 0.51374,6.209974 0.15186,3.640095 -0.051,7.605947 -1.11156,10.172849 -1.09762,2.65674 -2.59215,3.626604 -5.70802,4.186675 -3.03371,0.545295 -7.43466,0.349326 -12.32942,1.48336 -5.05675,1.171569 -10.08072,3.735619 -15.34068,9.129069 z m 1.80658,6.081885 c -5.25399,5.376674 -9.49035,12.246354 -14.71571,20.973944 -5.01206,8.37131 -10.371134,17.41377 -16.89661,24.21379 -6.635031,6.91419 -13.949603,11.07091 -23.01724,11.61855 l 0.174304,2.88529 c 9.863587,-0.59572 17.952178,-5.2315 24.928438,-12.50126 6.861324,-7.14999 12.285473,-16.37092 17.290908,-24.73116 5.21368,-8.70809 9.37001,-15.38998 14.30343,-20.438652 4.80467,-4.916974 9.23498,-7.125809 14.01242,-8.322918 4.62976,-1.160127 9.13349,-1.189906 12.99317,-2.126047 3.95904,-0.960254 6.92164,-3.029299 8.56191,-6.690884 1.60638,-3.585941 1.84258,-8.009989 1.75612,-11.946664 -0.0854,-3.889827 -0.45373,-6.675311 -0.45373,-6.675311 l -2.86623,0.378726 c 0,0 0.34717,2.620807 0.4293,6.360398 0.0824,3.75234 -0.23113,7.861848 -1.5031,10.70127 -1.31011,2.924548 -3.17407,4.230176 -6.60551,5.062457 -3.33701,0.809376 -7.98354,0.872418 -13.01392,2.132927 -5.19789,1.302472 -10.24617,3.853838 -15.37795,9.105544 z m 1.51632,6.266554 c -5.1071,5.23768 -9.08408,11.81713 -13.94256,20.12839 -4.660174,7.97202 -9.612748,16.54767 -15.8247,23.03441 -6.314964,6.59428 -13.431829,10.62146 -22.494763,11.29055 l 0.211594,2.88395 c 9.813249,-0.72448 17.704902,-5.21328 24.37143,-12.17468 6.557931,-6.84801 11.581519,-15.61601 16.234229,-23.57524 4.84579,-8.28957 8.7308,-14.66309 13.51368,-19.56825 4.66518,-4.784491 9.12439,-7.064769 14.08444,-8.48303 4.80756,-1.374665 9.62019,-1.75516 13.75676,-3.042059 4.24577,-1.320877 7.4136,-3.635438 9.32394,-7.489497 1.87382,-3.780413 2.31454,-8.328639 2.36015,-12.328409 0.045,-3.942601 -0.26581,-6.741358 -0.26581,-6.741358 l -2.87444,0.320704 c 0,0 0.29142,2.609737 0.24834,6.386396 -0.0433,3.796218 -0.5255,7.985546 -2.05879,11.07895 -1.5733,3.174096 -3.82856,4.842979 -7.59288,6.014071 -3.65758,1.137887 -8.54343,1.549318 -13.69182,3.021427 -5.32024,1.521257 -10.36324,4.120367 -15.3588,9.243675 z m 1.32698,6.36712 c -4.9585,5.1159 -8.69405,11.38174 -13.20663,19.23168 -4.32865,7.52999 -8.88966,15.57767 -14.762296,21.72934 -5.968295,6.25187 -12.829131,10.16802 -21.752792,11.04157 l 0.282035,2.87714 c 9.625837,-0.94228 17.237942,-5.29733 23.561785,-11.92165 6.222471,-6.51812 10.855748,-14.77 15.175978,-22.28536 4.49887,-7.82607 8.13756,-13.87301 12.77775,-18.66049 4.53421,-4.67813 9.01797,-7.09055 14.13596,-8.80751 4.96138,-1.664436 10.04333,-2.482121 14.44051,-4.162573 4.51674,-1.72614 7.90938,-4.298084 10.12467,-8.304641 2.17563,-3.934809 2.88315,-8.528909 3.11587,-12.522128 0.22875,-3.92535 0.0145,-6.687117 0.0145,-6.687117 l -2.88259,0.224025 c 0,0 0.20013,2.549206 -0.0181,6.293501 -0.21978,3.771318 -0.9235,7.971924 -2.75928,11.292083 -1.87827,3.397006 -4.53063,5.438711 -8.62723,7.004292 -3.97804,1.520266 -9.08275,2.361891 -14.3272,4.12129 -5.41921,1.818008 -10.43486,4.524308 -15.29291,9.536548 z m 1.2593,6.37946 c -4.81671,5.01447 -8.35288,10.95521 -12.55907,18.31552 -4.03532,7.06131 -8.236285,14.54043 -13.759178,20.34823 -5.610794,5.90025 -12.158619,9.72522 -20.809306,10.87848 l 0.381487,2.86623 c 9.301558,-1.24003 16.560505,-5.48169 22.522995,-11.75179 5.868872,-6.17162 10.149812,-13.86231 14.175632,-20.907 4.19136,-7.33436 7.61878,-13.0476 12.13294,-17.74709 4.42002,-4.60149 8.92061,-7.20317 14.16423,-9.28533 5.08384,-2.01871 10.38705,-3.34289 15.01812,-5.44481 4.76084,-2.160801 8.38363,-4.991359 10.92262,-9.105967 2.49575,-4.044556 3.51868,-8.606704 3.98594,-12.523737 0.45793,-3.838733 0.37883,-6.512617 0.37883,-6.512617 l -2.89069,0.08867 c 0,0 0.076,2.435952 -0.35893,6.081747 -0.43909,3.68089 -1.40841,7.835575 -3.57557,11.347609 -2.21266,3.585782 -5.24793,5.991793 -9.65745,7.993141 -4.27997,1.942564 -9.57541,3.278174 -14.88961,5.388364 -5.49013,2.18004 -10.45571,5.04899 -15.18299,9.97035 z m 1.32431,6.30083 c -4.69168,4.93561 -8.07562,10.55105 -12.03444,17.41162 -4.0086,6.94685 -7.88666,13.64715 -12.881708,18.949 -4.995045,5.30185 -11.055446,9.23537 -19.700207,10.804 l 0.515479,2.84569 c 9.256197,-1.67958 15.974603,-6.02784 21.288206,-11.66781 5.3136,-5.63997 9.27495,-12.5413 13.28294,-19.48708 3.94281,-6.83283 7.21047,-12.2213 11.62491,-16.86526 4.33161,-4.55684 8.84409,-7.39539 14.17471,-9.89436 5.16907,-2.42324 10.63152,-4.29925 15.45778,-6.83496 4.96555,-2.6089 8.80846,-5.69121 11.67218,-9.867324 2.81654,-4.107314 4.18352,-8.555257 4.92204,-12.329127 0.72138,-3.686219 0.81073,-6.228921 0.81073,-6.228921 l -2.88906,-0.09777 c 0,0 -0.0764,2.283621 -0.75902,5.771852 -0.69121,3.532082 -1.95743,7.585791 -4.46899,11.248354 -2.56057,3.734028 -5.94821,6.482346 -10.63238,8.943396 -4.54488,2.38787 -9.98839,4.26751 -15.34169,6.77711 -5.52849,2.59173 -10.42881,5.66908 -15.04148,10.52159 z m 1.53861,6.12572 c -4.59473,4.88068 -7.89438,10.18266 -11.68526,16.55306 -7.66949,12.88817 -14.447624,24.45477 -30.65354,28.41733 l 0.688153,2.80862 c 17.298175,-4.22961 24.783767,-16.86606 32.449327,-29.74765 3.77382,-6.34173 6.95324,-11.42709 11.3048,-16.04948 4.27884,-4.54514 8.79592,-7.66068 14.17014,-10.60976 5.21249,-2.86033 10.76127,-5.31138 15.7304,-8.27643 5.11669,-3.05309 9.15201,-6.36894 12.3222,-10.559756 6.18364,-8.174393 7.16256,-17.810357 7.16256,-17.810357 l -2.8736,-0.303529 c 0,0 -0.98343,8.955134 -6.59301,16.370663 -2.90251,3.836939 -6.59624,6.895699 -11.4981,9.820599 -4.75439,2.83691 -10.28315,5.28559 -15.64056,8.22546 -5.52991,3.03451 -10.35852,6.35463 -14.88351,11.16123 z m 1.91323,5.85967 c -4.53854,4.85033 -7.83347,9.86061 -11.55716,15.77155 -7.52785,11.94958 -13.996803,22.42676 -28.895303,27.28167 l 0.894022,2.74952 c 15.838897,-5.16135 22.926681,-16.5518 30.447861,-28.49079 3.70614,-5.88309 6.88683,-10.70212 11.22373,-15.33696 4.27243,-4.56594 8.78788,-7.98203 14.15876,-11.39284 5.21088,-3.30917 10.768,-6.33012 15.81241,-9.70158 5.19846,-3.47444 9.37313,-6.99157 12.81051,-11.15158 6.69505,-8.102546 8.55886,-16.797553 8.55886,-16.797553 l -2.82486,-0.608679 c 0,0 -1.74531,8.038418 -7.96334,15.563662 -3.21565,3.89166 -7.1429,7.21916 -12.1869,10.59032 -4.89021,3.2684 -10.43609,6.28436 -15.7585,9.66437 -5.49027,3.48662 -10.24383,7.07512 -14.72009,11.85889 z m 2.47167,5.49305 c -4.53702,4.84469 -7.92331,9.60072 -11.70266,15.10568 -7.63762,11.12486 -14.04178,20.64136 -27.444013,26.41354 l 1.144113,2.65733 c 14.16141,-6.09915 21.05511,-16.32282 28.6842,-27.43526 3.76271,-5.48071 7.04733,-10.08491 11.43014,-14.76491 4.32408,-4.61732 8.83726,-8.34682 14.1557,-12.2063 11.83587,-8.58906 20.42622,-13.31005 28.74962,-22.64838 7.08035,-7.943711 9.81676,-15.588812 9.81676,-15.588812 l -2.72354,-0.971778 c 0,0 -2.53376,7.099337 -9.25064,14.63526 -7.98633,8.96015 -16.32701,13.55297 -28.29055,22.23467 -5.40595,3.92298 -10.08928,7.78532 -14.56913,12.56896 z m 3.22636,5.03003 c -4.07425,4.31486 -7.77213,8.85228 -12.18396,14.58989 -8.04598,10.46384 -14.66875,19.21482 -26.428226,25.88319 l 1.427423,2.51545 c 12.300433,-6.97513 19.255983,-16.1829 27.293783,-26.63609 8.77154,-11.40743 14.46212,-17.78848 26.16503,-27.36404 11.69057,-9.56548 19.66509,-14.94663 28.33587,-24.11149 7.28942,-7.70479 10.81212,-14.264419 10.81212,-14.264419 l -2.54762,-1.36514 c 0,0 -3.31551,6.193576 -10.36383,13.643539 -8.44995,8.93144 -16.2907,14.22438 -28.06761,23.86048 -5.91829,4.84248 -10.36874,8.93376 -14.44298,13.24863 z m 4.1773,4.45676 c -4.22583,4.36144 -8.23191,8.79692 -13.04948,14.28077 -8.80183,10.01915 -15.97192,18.25408 -25.988867,25.74843 l 1.730147,2.3156 c 10.30029,-7.70633 17.63454,-16.1432 26.43135,-26.15664 9.60721,-10.9359 15.85798,-17.57163 27.19739,-27.88608 11.43332,-10.39988 18.49745,-16.17992 27.27931,-25.11556 7.26736,-7.3946 11.42907,-12.932242 11.42907,-12.932242 l -2.31097,-1.736331 c 0,0 -4.03101,5.368283 -11.18008,12.642553 -8.67529,8.82718 -15.68471,14.56417 -27.16178,25.00385 -5.70262,5.18716 -10.15026,9.47423 -14.37609,13.83565 z m -35.291393,44.0766 2.041253,2.04671 c 8.50716,-8.4802 16.02398,-15.92836 26.26828,-26.06015 9.86496,-9.75656 18.87999,-18.66403 28.76021,-28.50133 9.84045,-9.79779 18.10456,-18.09548 25.47485,-25.53916 6.95466,-7.02394 11.5545,-11.71121 11.55449,-11.7112 l -2.06334,-2.024687 c 0,0 -4.59546,4.683037 -11.54619,11.702947 -7.3658,7.4392 -15.62398,15.73103 -25.45965,25.52398 -9.87567,9.83264 -18.88654,18.73598 -28.75197,28.49306 -10.24521,10.13268 -17.76716,17.58596 -26.277961,26.0698 z"
       style="color:#000000;font-style:normal;font-variant:normal;font-weight:normal;font-stretch:normal;font-size:medium;line-height:normal;font-family:sans-serif;font-variant-ligatures:normal;font-variant-position:normal;font-variant-caps:normal;font-variant-numeric:normal;font-variant-alternates:normal;font-feature-settings:normal;text-indent:0;text-align:start;text-decoration:none;text-decoration-line:none;text-decoration-style:solid;text-decoration-color:#000000;letter-spacing:normal;word-spacing:normal;text-transform:none;writing-mode:lr-tb;direction:ltr;text-orientation:mixed;dominant-baseline:auto;baseline-shift:baseline;text-anchor:start;white-space:normal;shape-padding:0;clip-rule:nonzero;display:inline;overflow:visible;visibility:visible;opacity:1;isolation:auto;mix-blend-mode:normal;color-interpolation:sRGB;color-interpolation-filters:linearRGB;solid-color:#000000;solid-opacity:1;vector-effect:none;fill:url(#linearGradient905);fill-opacity:1;fill-rule:nonzero;stroke:none;stroke-width:2.89100933;stroke-linecap:butt;stroke-linejoin:miter;stroke-miterlimit:4;stroke-dasharray:none;stroke-dashoffset:0;stroke-opacity:1;color-rendering:auto;image-rendering:auto;shape-rendering:auto;text-rendering:auto;enable-background:accumulate" />
  </g>
</svg>
