<?xml version="1.0" encoding="UTF-8" standalone="no"?>
<svg
   xmlns:dc="http://purl.org/dc/elements/1.1/"
   xmlns:cc="http://creativecommons.org/ns#"
   xmlns:rdf="http://www.w3.org/1999/02/22-rdf-syntax-ns#"
   xmlns:svg="http://www.w3.org/2000/svg"
   xmlns="http://www.w3.org/2000/svg"
   xmlns:xlink="http://www.w3.org/1999/xlink"
   xmlns:sodipodi="http://sodipodi.sourceforge.net/DTD/sodipodi-0.dtd"
   xmlns:inkscape="http://www.inkscape.org/namespaces/inkscape"
   sodipodi:docname="otapick_logo2.svg"
   inkscape:version="0.92.5 (2060ec1f9f, 2020-04-08)"
   id="svg8"
   version="1.1"
   viewBox="0 0 210 297"
   height="297mm"
   width="210mm">
  <defs
     id="defs2">
    <linearGradient
       inkscape:collect="always"
       id="linearGradient5331">
      <stop
         style="stop-color:#47ff56;stop-opacity:1"
         offset="0"
         id="stop5327" />
      <stop
         style="stop-color:#fd00ff;stop-opacity:1"
         offset="1"
         id="stop5329" />
    </linearGradient>
    <linearGradient
       id="linearGradient4718-7-3-1"
       inkscape:collect="always">
      <stop
         id="stop4722"
         offset="0"
         style="stop-color:#00ffff;stop-opacity:1" />
      <stop
         id="stop4724"
         offset="1"
         style="stop-color:#fd0cff;stop-opacity:0.35714287" />
    </linearGradient>
    <inkscape:path-effect
       effect="lattice2"
       gridpoint0="34.002242,89.056188"
       gridpoint1="163.99776,89.056188"
       gridpoint2="34.002242,217.79245"
       gridpoint3="163.99776,217.79245"
       gridpoint4="66.501121,89.056188"
       gridpoint5="131.49888,89.056188"
       gridpoint6="66.501121,217.79245"
       gridpoint7="131.49888,217.79245"
       gridpoint8x9="99.000001,89.056188"
       gridpoint10x11="99.000001,217.79245"
       gridpoint12="34.002242,121.24025"
       gridpoint13="163.99776,121.24025"
       gridpoint14="34.002242,185.60838"
       gridpoint15="163.99776,185.60838"
       gridpoint16="61.927561,132.67415"
       gridpoint17="114.5767,99.287157"
       gridpoint18="63.756984,207.56147"
       gridpoint19="138.81658,170.05827"
       gridpoint20x21="90.310235,135.87565"
       gridpoint22x23="106.3177,182.40689"
       gridpoint24x26="34.002242,153.42432"
       gridpoint25x27="163.99776,153.42432"
       gridpoint28x30="61.470204,174.00534"
       gridpoint29x31="144.30485,134.67272"
       gridpoint32x33x34x35="108.14712,162.11409"
       id="path-effect4593"
       is_visible="true"
       horizontal_mirror="false"
       vertical_mirror="false"
       live_update="true" />
    <inkscape:path-effect
       live_update="true"
       perimetral="false"
       vertical_mirror="false"
       horizontal_mirror="false"
       lpeversion="1"
       is_visible="true"
       id="path-effect892"
       gridpoint32x33x34x35="120.17073,101.88943"
       gridpoint29x31="137.99946,121.55574"
       gridpoint28x30="79.931553,154.02803"
       gridpoint25x27="173.66507,122.92781"
       gridpoint24x26="34.66146,122.92781"
       gridpoint22x23="120.17073,132.76674"
       gridpoint20x21="115.59717,86.10487"
       gridpoint19="119.70521,168.89787"
       gridpoint18="92.737523,174.38615"
       gridpoint17="129.30969,90.678431"
       gridpoint16="73.071211,121.32129"
       gridpoint15="173.66507,151.06099"
       gridpoint14="34.66146,151.06099"
       gridpoint13="173.66507,94.794636"
       gridpoint12="34.66146,94.794636"
       gridpoint10x11="104.16326,179.19416"
       gridpoint8x9="104.16326,66.661461"
       gridpoint7="138.91417,179.19416"
       gridpoint6="69.412363,179.19416"
       gridpoint5="164.98346,66.661461"
       gridpoint4="69.412363,66.661461"
       gridpoint3="173.66507,179.19416"
       gridpoint2="34.66146,179.19416"
       gridpoint1="173.66507,66.661461"
       gridpoint0="34.66146,66.661461"
       effect="lattice2" />
    <clipPath
       clipPathUnits="userSpaceOnUse"
       id="clipPath4750">
      <rect
         style="opacity:1;fill:#ff00ff;fill-opacity:0;stroke-width:1.32291663;stroke-miterlimit:4;stroke-dasharray:none"
         id="rect4752"
         width="98.331558"
         height="242.39873"
         x="0.4573561"
         y="39.051159" />
    </clipPath>
    <linearGradient
       inkscape:collect="always"
       xlink:href="#linearGradient4718-7-3-1"
       id="linearGradient4825"
       gradientUnits="userSpaceOnUse"
       gradientTransform="rotate(45.328868,98.954336,153.42478)"
       x1="60.485291"
       y1="116.36552"
       x2="163.71889"
       y2="217.16016" />
    <linearGradient
       inkscape:collect="always"
       xlink:href="#linearGradient5331"
       id="linearGradient5325"
       gradientUnits="userSpaceOnUse"
       gradientTransform="rotate(45.328868,98.954336,153.42478)"
       x1="80.11969"
       y1="136.06371"
       x2="163.71889"
       y2="217.16016" />
  </defs>
  <sodipodi:namedview
     inkscape:window-maximized="1"
     inkscape:window-y="-8"
     inkscape:window-x="-8"
     inkscape:window-height="1017"
     inkscape:window-width="1920"
     showgrid="false"
     inkscape:current-layer="layer1"
     inkscape:document-units="mm"
     inkscape:cy="601.13355"
     inkscape:cx="217.80192"
     inkscape:zoom="0.57850619"
     inkscape:pageshadow="2"
     inkscape:pageopacity="0.0"
     borderopacity="1.0"
     bordercolor="#666666"
     pagecolor="#ffffff"
     id="base"
     showguides="false" />
  <metadata
     id="metadata5">
    <rdf:RDF>
      <cc:Work
         rdf:about="">
        <dc:format>image/svg+xml</dc:format>
        <dc:type
           rdf:resource="http://purl.org/dc/dcmitype/StillImage" />
        <dc:title></dc:title>
      </cc:Work>
    </rdf:RDF>
  </metadata>
  <g
     id="layer1"
     inkscape:groupmode="layer"
     inkscape:label="レイヤー 1">
    <path
       style="color:#000000;font-style:normal;font-variant:normal;font-weight:normal;font-stretch:normal;font-size:medium;line-height:normal;font-family:sans-serif;font-variant-ligatures:normal;font-variant-position:normal;font-variant-caps:normal;font-variant-numeric:normal;font-variant-alternates:normal;font-feature-settings:normal;text-indent:0;text-align:start;text-decoration:none;text-decoration-line:none;text-decoration-style:solid;text-decoration-color:#000000;letter-spacing:normal;word-spacing:normal;text-transform:none;writing-mode:lr-tb;direction:ltr;text-orientation:mixed;dominant-baseline:auto;baseline-shift:baseline;text-anchor:start;white-space:normal;shape-padding:0;clip-rule:nonzero;display:inline;overflow:visible;visibility:visible;opacity:0.7;isolation:auto;mix-blend-mode:normal;color-interpolation:sRGB;color-interpolation-filters:linearRGB;solid-color:#000000;solid-opacity:1;vector-effect:none;fill:url(#linearGradient4825);fill-opacity:1;fill-rule:nonzero;stroke:none;stroke-width:1.26374853;stroke-linecap:butt;stroke-linejoin:miter;stroke-miterlimit:4;stroke-dasharray:none;stroke-dashoffset:0;stroke-opacity:1;color-rendering:auto;image-rendering:auto;shape-rendering:auto;text-rendering:auto;enable-background:accumulate"
       d="m 99.517484,61.536996 -0.901409,0.885629 c 15.151345,15.431779 37.707135,38.547805 56.682665,57.759395 10.62517,10.75738 16.93537,17.10706 24.25461,24.55966 6.18337,6.29603 9.95705,10.21093 9.95705,10.21093 l 0.91105,-0.87589 c 0,0 -3.77985,-3.9211 -9.96668,-10.22065 -7.32225,-7.45568 -13.63326,-13.80615 -24.25736,-24.56245 C 137.22619,100.08639 114.67156,76.971563 99.517505,61.53701 Z M 177.62557,145.90592 C 170.1862,138.18895 162.78462,131.48289 151.60352,121.28363 140.6013,111.24755 131.6523,102.88376 121.49545,92.219778 112.04957,82.302267 103.82855,72.714089 96.743039,64.636811 l -0.949455,0.834253 c 7.078126,8.068856 15.312866,17.673573 24.786726,27.620452 10.18498,10.693514 19.16286,19.083284 30.17124,29.124984 11.18246,10.20049 18.56179,16.8879 25.96437,24.56672 6.43163,6.67163 9.96528,11.18602 9.96528,11.18602 l 0.99608,-0.77874 c 0,0 -3.58282,-4.5743 -10.05171,-11.28458 z m -2.74071,2.03381 c -7.55697,-8.0101 -15.63582,-14.61577 -27.53341,-24.30365 -11.68487,-9.51466 -21.07553,-17.4177 -30.83419,-27.917573 -9.18167,-9.879043 -16.27423,-19.57951 -22.710746,-28.137493 l -1.01118,0.760702 c 6.428825,8.547755 13.554286,18.293985 22.795786,28.237424 9.81862,10.56436 19.26706,18.51537 30.96057,28.03707 11.89663,9.68709 19.92749,16.25579 27.41391,24.19109 6.54073,6.93293 9.72858,11.99951 9.72858,11.99951 l 1.07006,-0.67336 c 0,0 -3.26807,-5.18598 -9.87938,-12.19372 z m -2.57553,2.12866 C 164.7441,141.86303 156.11644,135.5099 143.49751,126.40238 131.1236,117.47168 121.17667,110.01758 111.64903,99.547951 102.62775,89.634758 96.458065,79.558409 90.839828,70.486375 l -1.074169,0.666424 c 5.615656,9.067887 11.833891,19.228372 20.949011,29.244691 9.62135,10.57258 19.65694,18.09163 32.04084,27.02955 12.61432,9.10419 21.16405,15.40699 28.62495,23.49921 6.53632,7.08938 9.30221,12.65447 9.30221,12.65447 l 1.13157,-0.56115 c 0,0 -2.86492,-5.74934 -9.50491,-12.95118 z m -2.27328,2.40939 c -7.44877,-8.33484 -16.52239,-14.35299 -29.8483,-22.83087 -13.0613,-8.30955 -23.67164,-15.32497 -33.13447,-25.86053 C 98.049464,93.761867 92.660985,83.17764 87.959253,73.54829 l -1.135678,0.554208 c 4.70845,9.643102 10.15658,20.362131 19.288485,30.529232 9.5903,10.67749 20.32556,17.76563 33.39698,26.08163 13.31641,8.47183 22.27421,14.42582 29.58442,22.60561 6.41596,7.17921 8.68163,13.21578 8.68163,13.21578 l 1.18202,-0.44621 c 0,0 -2.36807,-6.27823 -8.92106,-13.61076 z m -2.21556,2.45667 C 160.56027,146.54401 151.15042,140.95707 137.1459,133.13465 123.428,125.47233 112.08503,118.8633 102.57131,108.176 93.482292,97.965786 88.757223,86.760691 85.026575,76.543619 l -1.187473,0.435133 c 3.746466,10.260397 8.538556,21.646352 17.788248,32.037058 9.67327,10.86653 21.17286,17.55447 34.90178,25.22293 13.99098,7.81486 23.24848,13.33029 30.33643,21.52165 6.22144,7.18996 7.95688,13.64113 7.95688,13.64113 l 1.22,-0.32998 c 0,0 -1.8306,-6.75076 -8.22195,-14.13709 z m -2.12505,2.56768 c -7.00489,-8.39056 -16.66327,-13.48998 -31.30406,-20.6502 C 120.05628,129.84121 107.94072,123.60506 98.272229,112.7034 89.002601,102.25147 84.823592,90.363994 82.082823,79.544402 l -1.225434,0.310621 c 2.761769,10.902452 7.009286,23.019977 16.469504,33.686807 9.857377,11.11462 22.161677,17.42652 36.509707,24.44355 14.62454,7.15227 24.08914,12.18266 30.8888,20.32741 5.96276,7.14232 7.14852,13.95691 7.14852,13.95691 l 1.24422,-0.2166 c 0,0 -1.25779,-7.16652 -7.4227,-14.55097 z m -2.07315,2.67019 C 156.9236,151.82621 147.10203,147.24324 131.87901,140.73356 116.97741,134.36135 104.06926,128.46302 94.161946,117.30232 84.633538,106.56849 80.89374,93.96486 79.130798,82.542377 l -1.250994,0.193078 c 1.782683,11.550427 5.591254,24.426835 15.336807,35.405285 10.122179,11.40272 23.247639,17.37509 38.165439,23.75422 15.20587,6.50235 24.79188,11.01754 31.25374,19.06858 5.65658,7.04771 6.29233,14.18262 6.29233,14.18262 l 1.25882,-0.11297 c 0,0 -0.67495,-7.52274 -6.56465,-14.86092 z m -2.20514,2.56445 C 154.98776,154.5278 145.0608,150.5242 129.30715,144.63005 113.90414,138.86709 100.23753,133.22452 90.08437,121.73708 80.291061,110.65675 76.939009,97.296264 76.151234,85.284698 l -1.261411,0.08253 c 0.799108,12.184343 4.214015,25.854612 14.246465,37.205492 10.389538,11.75489 24.302652,17.46945 39.729022,23.24115 15.73995,5.88901 25.39524,9.83562 31.55712,17.70303 5.37362,6.86096 5.52845,14.20725 5.52845,14.20725 l 1.26523,-0.0259 c 0,0 -0.16133,-7.7637 -5.79896,-14.96149 z m -2.06986,2.82075 c -2.73759,-3.64106 -6.67857,-6.71074 -12.34638,-9.48578 -5.73505,-2.80795 -12.26258,-4.8906 -19.89911,-7.3967 C 111.25788,143.4755 96.831239,138.07609 86.339031,126.27732 76.193285,114.86815 73.098195,100.80176 73.205051,88.227462 l -1.263636,-0.01139 c -0.108682,12.790048 3.049889,27.201748 13.453653,38.901068 10.746911,12.08518 25.438062,17.54926 41.311762,22.75856 7.64175,2.50781 14.12309,4.58251 19.73927,7.33226 5.54545,2.71513 9.29855,5.66033 11.89139,9.10887 5.0307,6.69096 4.6885,14.2494 4.6885,14.2494 l 1.26337,0.0584 c 0,0 0.38013,-7.98841 -4.94207,-15.06705 z m -4.27915,0.33312 c -2.43233,-2.44902 -5.65499,-4.57237 -9.89834,-6.48716 -5.73335,-2.58717 -12.33657,-4.41014 -20.16426,-6.67592 C 108.79429,148.03511 93.652802,142.83769 82.790328,130.72754 72.263056,118.99108 69.333339,104.25932 70.257543,91.160551 l -1.260431,-0.08871 c -0.942117,13.352659 2.052897,28.458639 12.853372,40.499679 11.131839,12.41044 26.554616,17.66624 42.802796,22.36937 7.83587,2.26815 14.39225,4.08544 19.99615,6.6142 5.5243,2.49282 9.1532,5.28087 11.56954,8.63607 4.68366,6.50348 3.88625,14.22129 3.88625,14.22129 l 1.25602,0.13428 c 0,0 0.88236,-8.1517 -4.1174,-15.0941 -0.64339,-0.89337 -1.36505,-1.74553 -2.1757,-2.56199 z m -2.04759,3.02666 c -2.33161,-2.36991 -5.48805,-4.3769 -9.70558,-6.13942 -5.70788,-2.38533 -12.35067,-3.97494 -20.33234,-6.03192 -16.49982,-4.25218 -32.294942,-9.29333 -43.544125,-21.70242 -10.92383,-12.05019 -13.775841,-27.3846 -12.128429,-40.958179 l -1.254533,-0.152219 c -1.682218,13.860308 1.238556,29.594138 12.447239,41.958548 11.529703,12.71853 27.619188,17.81522 44.163468,22.07887 7.99299,2.05988 14.59187,3.6454 20.16141,5.97293 5.48044,2.29028 8.97387,4.92795 11.21719,8.18519 4.34404,6.30745 3.13955,14.1383 3.13955,14.1383 l 1.24875,0.19637 c 0,0 1.33388,-8.2545 -3.34699,-15.05101 -0.60277,-0.8752 -1.28836,-1.70511 -2.06561,-2.49504 z m -2.11838,3.09115 c -2.2299,-2.29534 -5.31084,-4.19774 -9.48502,-5.82741 -5.659,-2.20935 -12.30627,-3.60184 -20.40175,-5.4854 C 104.30995,156.8088 87.936765,151.88281 76.29337,139.20191 64.966529,126.86577 62.105214,111.00999 64.362555,97.02121 l -1.24736,-0.200508 c -2.308111,14.303428 0.627857,30.579388 12.24795,43.234908 11.931835,12.99506 28.607815,17.97286 45.364815,21.87169 8.10991,1.88692 14.71614,3.27808 20.22944,5.43056 5.41472,2.11399 8.7673,4.61334 10.84388,7.77426 4.01767,6.1155 2.46077,14.01561 2.46077,14.01561 l 1.2374,0.25157 c 0,0 1.72846,-8.30775 -2.64179,-14.95997 -0.56313,-0.85716 -1.21219,-1.66577 -1.95549,-2.43088 z m -2.21121,3.14448 c -2.12926,-2.22866 -5.12829,-4.04098 -9.24349,-5.56085 -5.58861,-2.06406 -12.20674,-3.29992 -20.37387,-5.04881 C 102.24852,160.94038 85.382676,156.08504 73.349591,143.16946 61.624777,130.58477 58.670578,114.30501 61.41081,99.969473 l -1.240233,-0.237764 c -2.804924,14.673971 0.232271,31.393241 12.255649,44.298401 12.326416,13.23042 29.499144,18.13521 46.382004,21.75048 8.18429,1.75255 14.76457,2.98866 20.20153,4.99671 5.3296,1.9684 8.5373,4.34703 10.45786,7.41711 3.71316,5.93555 1.8664,13.86166 1.8664,13.86166 l 1.22885,0.29571 c 0,0 2.05336,-8.31272 -2.02243,-14.82795 -0.52548,-0.83997 -1.13975,-1.62801 -1.84948,-2.3709 z m -2.33158,3.17832 c -2.03407,-2.17021 -4.94926,-3.91168 -8.99335,-5.34672 -5.50104,-1.95204 -12.0594,-3.07035 -20.25557,-4.72635 C 100.2524,164.85207 82.99305,160.01915 70.590804,146.91019 58.488366,134.11816 55.36967,117.51683 58.460495,102.91083 l -1.235964,-0.26121 c -3.16677,14.96488 0.04504,32.01945 12.448378,45.12954 12.697532,13.42105 30.266476,18.29899 47.187381,21.7178 8.21558,1.65994 14.73826,2.78315 20.08318,4.67979 5.22986,1.85579 8.29947,4.13347 10.08116,7.11937 3.44273,5.76962 1.37578,13.67655 1.37578,13.67655 l 1.22039,0.3288 c 0,0 2.29881,-8.26748 -1.51106,-14.65238 -0.49142,-0.82355 -1.07232,-1.59445 -1.75036,-2.31784 z m -2.49861,3.16768 c -1.95463,-2.11446 -4.79028,-3.79517 -8.7596,-5.16859 -5.4083,-1.87132 -11.88762,-2.91734 -20.07441,-4.52643 C 98.217446,168.50007 80.677723,163.62604 67.956622,150.35471 55.525356,137.38573 52.200524,120.56465 55.527205,105.77219 l -1.2331,-0.27778 c -3.411391,15.16915 0.01868,32.45268 12.750122,45.73481 13.015324,13.57828 30.862872,18.49787 47.739243,21.8149 8.2082,1.61329 14.6534,2.66469 19.90342,4.48124 5.12761,1.7742 8.07487,3.96655 9.74836,6.86887 3.23139,5.60416 1.04304,13.42053 1.04304,13.42054 l 1.21333,0.35223 c 0,0 2.43869,-8.16047 -1.16167,-14.40454 -0.46469,-0.80589 -1.01764,-1.5587 -1.66918,-2.26353 z m -2.57923,3.25562 c -1.87001,-2.0834 -4.61756,-3.73612 -8.49215,-5.0842 -5.2836,-1.83831 -11.65265,-2.86609 -19.77781,-4.46809 C 96.344623,171.91609 78.625892,166.99142 65.58714,153.64191 52.82905,140.57974 49.19081,123.67699 52.561305,108.78114 l -1.234473,-0.27916 c -3.459295,15.28827 0.300826,32.6563 13.356151,46.02279 13.329695,13.64738 31.350466,18.61815 48.085317,21.91769 8.14699,1.60631 14.48295,2.63927 19.60543,4.42154 4.99823,1.73902 7.81858,3.88315 9.38731,6.73145 3.02931,5.50025 0.75689,13.22552 0.75689,13.22552 l 1.21047,0.36879 c 0,0 2.52986,-8.04977 -0.86036,-14.20531 -0.43762,-0.79456 -0.96316,-1.53543 -1.5865,-2.2299 z m -2.76691,3.22969 c -1.80504,-2.057 -4.47274,-3.69737 -8.25345,-5.04555 -5.1585,-1.83949 -11.40164,-2.89182 -19.42801,-4.53377 C 94.385522,175.04028 76.609194,170.00023 63.320303,156.61068 50.300464,143.49229 46.320026,126.61701 49.613824,111.70871 l -1.234501,-0.27364 c -3.38357,15.3146 0.732419,32.65338 14.043689,46.0654 13.573786,13.6766 31.640982,18.76344 48.155838,22.14184 8.04805,1.64637 14.26029,2.70401 19.25704,4.48582 4.87232,1.73745 7.5925,3.85342 9.0922,6.65244 2.89568,5.40443 0.64232,12.97349 0.64232,12.97349 l 1.20908,0.37293 c 0,0 2.5097,-7.88153 -0.73758,-13.94219 -0.41929,-0.78257 -0.92561,-1.5149 -1.52728,-2.20056 z m -2.92576,3.23291 c -1.75362,-2.0425 -4.34734,-3.69292 -8.03094,-5.0705 -5.02601,-1.87963 -11.12894,-3.00319 -19.01671,-4.72891 C 92.389968,177.88413 74.673249,172.68198 61.188988,159.30815 47.960358,146.18785 43.595882,129.45858 46.669159,114.628 l -1.23599,-0.25569 c -3.159975,15.24894 1.355049,32.43289 14.866766,45.83396 13.760612,13.64792 31.756516,18.89699 47.971795,22.44462 7.90819,1.73018 13.97935,2.86016 18.84436,4.67958 4.74375,1.77405 7.38009,3.88925 8.83809,6.65372 2.81519,5.3378 0.66593,12.70848 0.66593,12.70848 l 1.20912,0.36464 c 0,0 2.3973,-7.68094 -0.75714,-13.66196 -0.40742,-0.77249 -0.89867,-1.49736 -1.48322,-2.1782 z m -3.08593,3.22923 c -1.71713,-2.04 -4.24208,-3.72075 -7.82743,-5.15634 -4.88919,-1.95767 -10.83977,-3.19911 -18.5522,-5.0508 C 90.339921,180.4498 72.798459,175.04246 59.179356,161.73975 45.800013,148.67125 41.016055,132.20662 43.728653,117.54318 l -1.24304,-0.2295 c -2.791835,15.09175 2.159958,31.99671 15.811556,45.33115 13.884466,13.56191 31.690239,19.01847 47.531831,22.8219 7.73047,1.85601 13.64641,3.10448 18.3771,4.99868 4.61558,1.8481 7.19122,3.98734 8.63598,6.73267 2.78992,5.30138 0.82217,12.43868 0.82217,12.43868 l 1.21475,0.34809 c 0,0 2.19526,-7.4579 -0.91899,-13.37561 -0.40234,-0.7645 -0.8847,-1.48286 -1.45707,-2.16286 z m -3.43247,2.9676 c -1.80789,-2.12927 -4.28654,-3.71113 -7.5723,-5.09273 -4.38101,-1.84214 -10.22714,-3.37349 -18.07599,-5.48586 C 88.056596,182.7 70.800866,177.01014 57.148375,163.79973 43.715049,150.80139 38.538788,134.68891 40.81679,120.28174 l -1.24876,-0.19638 c -2.346888,14.84284 3.010135,31.37484 16.702279,44.62362 13.904381,13.45414 31.406272,19.19762 46.823081,23.34678 7.85245,2.11335 13.67461,3.64819 17.91471,5.43108 4.2401,1.78288 6.86616,3.76824 8.54138,6.85365 2.85597,5.26015 1.18186,12.09133 1.18186,12.09133 l 1.22463,0.31087 c 0,0 1.87114,-7.1702 -1.29677,-13.00488 -0.45845,-0.84438 -0.9861,-1.61407 -1.58873,-2.32383 z m -3.3952,3.21088 c -1.80029,-2.15044 -4.22603,-3.8066 -7.42473,-5.29628 -4.26493,-1.98626 -9.9291,-3.71578 -17.5328,-6.03933 C 85.841225,184.74327 68.9763,178.76937 55.319742,165.73658 41.859829,152.89146 36.216991,137.2571 37.873586,123.18585 l -1.25594,-0.14808 c -1.708277,14.51021 4.125048,30.53501 17.828149,43.61221 13.892819,13.25827 30.986438,19.28871 45.903165,23.84699 7.60336,2.32345 13.24002,4.05413 17.37019,5.97762 4.13018,1.9235 6.73123,4.00282 8.45023,7.09207 2.94156,5.28628 1.59495,11.82853 1.59495,11.82853 l 1.23594,0.26398 c 0,0 1.50475,-6.89808 -1.72801,-12.70768 -0.46692,-0.83912 -0.9969,-1.60981 -1.59699,-2.32663 z m -5.5489,1.14622 c -1.47262,-1.28375 -3.22256,-2.42024 -5.29987,-3.49971 -4.15461,-2.15899 -9.6308,-4.12327 -16.966955,-6.69211 C 83.520073,186.55813 67.134841,180.26147 53.544858,167.45276 40.124301,154.80372 34.011397,139.74205 34.931811,126.08306 l -1.260444,-0.0859 c -0.949834,14.09552 5.360673,29.51473 19.006409,42.376 13.808331,13.01451 30.396614,19.3691 44.763353,24.39978 7.331291,2.56713 12.774301,4.52716 16.803011,6.62072 4.02872,2.09356 6.62769,4.28976 8.42088,7.39574 3.08294,5.33999 2.13085,11.57886 2.13085,11.57886 l 1.24876,0.19637 c 0,0 1.06544,-6.60384 -2.28492,-12.40702 -0.96524,-1.67188 -2.16071,-3.10272 -3.63334,-4.38648 z m -3.66815,3.12369 c -4.37645,-4.00144 -11.04184,-6.90297 -21.619024,-11.16729 -13.764247,-5.54922 -29.583899,-12.2051 -43.034978,-24.74895 -13.31496,-12.4169 -19.895697,-26.82949 -19.812755,-40.0079 l -1.263642,-0.009 c -0.08563,13.60443 6.695021,28.33175 20.214821,40.93968 13.649295,12.7287 29.645516,19.44246 43.423027,24.99702 14.083861,5.67807 20.891891,8.8422 24.684511,15.10994 3.27851,5.41816 2.77718,11.34089 2.77718,11.34089 l 1.25893,0.10942 c 0,0 0.56512,-6.29032 -2.95372,-12.10564 -1.01023,-1.66952 -2.21554,-3.12471 -3.67435,-4.45853 z m -3.77039,3.13139 C 108.30605,203.82933 101.86215,200.49983 91.739207,195.79513 78.586458,189.68231 63.402754,182.64553 50.14833,170.41503 36.989439,158.27272 29.931001,144.58567 29.058903,131.94662 l -1.261439,0.088 c 0.899967,13.04301 8.150935,26.9986 21.492016,39.30905 13.430317,12.39278 28.765573,19.48384 41.916962,25.59603 13.468888,6.25975 20.135618,9.97764 24.167868,16.33202 3.5098,5.531 3.49644,11.15441 3.49644,11.15441 l 1.26367,0.006 c 0,0 0.0261,-5.97588 -3.69278,-11.83643 -1.06251,-1.67439 -2.29322,-3.17053 -3.75382,-4.56947 z m -3.93846,3.05584 C 104.31706,206.68515 98.063776,202.90924 88.391353,197.73706 75.858168,191.03516 61.350885,183.56383 48.385828,171.65756 35.463519,159.79053 27.98459,146.86445 26.124212,134.81211 l -1.248234,0.19309 c 1.917373,12.42158 9.575226,25.5707 22.655139,37.58246 13.116839,12.04565 27.744385,19.56857 40.264106,26.26329 12.861867,6.87768 19.447747,11.179 23.790377,17.61702 3.80591,5.64233 4.33451,10.95483 4.33451,10.95483 l 1.25751,-0.12538 c 0,0 -0.56148,-5.63213 -4.54386,-11.53609 -1.13198,-1.67818 -2.40695,-3.21372 -3.88439,-4.67933 z m -4.02948,3.03323 C 100.20553,209.50964 94.110162,205.27606 84.884957,199.62698 72.979014,192.33633 59.167428,184.38321 46.568531,172.82244 33.942743,161.23701 26.084381,149.09988 23.186802,137.66929 l -1.224053,0.31201 c 2.978744,11.75078 10.992593,24.06668 23.749684,35.7726 12.725058,11.67655 26.629553,19.67377 38.513089,26.95069 12.26238,7.50892 18.819078,12.41635 23.512048,18.94404 4.14333,5.76315 5.24292,10.77636 5.24292,10.77636 l 1.23487,-0.27052 c 0,0 -1.16615,-5.28222 -5.45154,-11.24298 -1.2109,-1.68428 -2.53914,-3.26106 -4.04393,-4.79626 z m -4.09702,3.00935 C 95.99491,212.30905 90.018203,207.62158 81.225364,201.50084 69.948219,193.65077 56.811605,185.15957 44.661603,173.96332 32.387786,162.65297 24.209238,151.3071 20.246668,140.52094 l -1.1861,0.43653 c 4.057553,11.0447 12.367338,22.52856 24.744952,33.93456 12.249551,11.28798 25.44849,19.81484 36.698485,27.64601 11.686586,8.13509 18.275868,13.65554 23.349755,20.27171 4.51471,5.88704 6.20091,10.62027 6.20091,10.62027 l 1.1888,-0.42546 c 0,0 -1.76469,-4.93681 -6.38678,-10.96385 -1.29722,-1.69154 -2.69116,-3.31094 -4.23382,-4.91613 z m -4.215196,2.90649 C 91.628151,215.01778 85.716107,209.8971 77.320228,203.32356 66.670299,194.98524 54.116674,185.8463 42.523053,175.03383 30.659431,163.96954 22.248254,153.38404 17.240938,143.25068 l -1.132945,0.55974 c 5.101334,10.32363 13.615224,21.01276 25.554857,32.14794 11.666553,10.8805 24.255103,20.04329 34.878247,28.36064 11.162372,8.73954 17.855198,14.8513 23.341093,21.54087 4.91995,5.99947 7.19758,10.46164 7.19758,10.46164 l 1.12613,-0.57497 c 0,0 -2.35286,-4.59788 -7.34683,-10.68761 -1.391552,-1.69689 -2.858219,-3.35676 -4.451396,-5.02786 z m -9.448247,-2.37033 C 83.14997,213.96338 78.744795,209.95293 73.392117,205.29807 63.431451,196.63595 51.225332,186.63739 40.336425,176.30016 28.914754,165.45716 20.337054,155.58827 14.278669,146.10773 l -1.064592,0.68167 c 6.135498,9.6012 14.782348,19.5393 26.252519,30.42833 10.935769,10.38173 23.157361,20.39009 33.095546,29.03268 10.681174,9.28871 17.548836,15.97414 23.436481,22.7264 5.328417,6.11091 8.165047,10.34014 8.165047,10.34014 l 1.04954,-0.70524 c 0,0 -2.89147,-4.30375 -8.263775,-10.46501 -2.968023,-3.40388 -6.180551,-6.78859 -9.990008,-10.48596 z m -4.2475,2.7599 C 78.849024,216.54017 74.489125,212.2894 69.347237,207.40449 59.625997,198.16911 48.416349,187.94072 37.948604,177.7297 27.00552,167.05497 18.363855,157.81498 11.312226,148.97165 l -0.987855,0.78708 c 7.097833,8.90133 15.776082,18.17902 26.74204,28.87604 10.488577,10.23134 21.702287,20.46374 31.40963,29.68591 10.270287,9.75699 17.408953,16.96981 23.684724,23.74984 5.741097,6.20237 9.092415,10.22529 9.092415,10.22529 l 0.97002,-0.80788 c 0,0 -3.375213,-4.05415 -9.134926,-10.27665 -3.148395,-3.40137 -6.513436,-6.91016 -10.376347,-10.79064 z M 8.2647476,151.75639 7.3550884,152.6337 c 13.9033256,14.41177 39.0959566,39.80306 56.8643326,57.86815 18.913735,19.22955 34.038221,34.67292 34.038221,34.67292 l 0.902882,-0.88414 c 0,0 -15.123409,-15.44507 -34.038198,-34.67569 C 47.35032,191.54614 22.1536,166.15295 8.2648426,151.75649 Z"
       id="path4581"
       inkscape:connector-curvature="0"
       clip-path="url(#clipPath4750)"
       transform="rotate(-135.42177,92.1586,138.61793)"
       inkscape:export-xdpi="96"
       inkscape:export-ydpi="96" />
    <path
       transform="matrix(-0.63657824,-0.60887807,0.62727451,-0.61790895,54.55352,270.01721)"
       clip-path="url(#clipPath4750)"
       inkscape:connector-curvature="0"
       id="path5323"
       d="m 99.517484,61.536996 -0.901409,0.885629 c 15.151345,15.431779 37.707135,38.547805 56.682665,57.759395 10.62517,10.75738 16.93537,17.10706 24.25461,24.55966 6.18337,6.29603 9.95705,10.21093 9.95705,10.21093 l 0.91105,-0.87589 c 0,0 -3.77985,-3.9211 -9.96668,-10.22065 -7.32225,-7.45568 -13.63326,-13.80615 -24.25736,-24.56245 C 137.22619,100.08639 114.67156,76.971563 99.517505,61.53701 Z M 177.62557,145.90592 C 170.1862,138.18895 162.78462,131.48289 151.60352,121.28363 140.6013,111.24755 131.6523,102.88376 121.49545,92.219778 112.04957,82.302267 103.82855,72.714089 96.743039,64.636811 l -0.949455,0.834253 c 7.078126,8.068856 15.312866,17.673573 24.786726,27.620452 10.18498,10.693514 19.16286,19.083284 30.17124,29.124984 11.18246,10.20049 18.56179,16.8879 25.96437,24.56672 6.43163,6.67163 9.96528,11.18602 9.96528,11.18602 l 0.99608,-0.77874 c 0,0 -3.58282,-4.5743 -10.05171,-11.28458 z m -2.74071,2.03381 c -7.55697,-8.0101 -15.63582,-14.61577 -27.53341,-24.30365 -11.68487,-9.51466 -21.07553,-17.4177 -30.83419,-27.917573 -9.18167,-9.879043 -16.27423,-19.57951 -22.710746,-28.137493 l -1.01118,0.760702 c 6.428825,8.547755 13.554286,18.293985 22.795786,28.237424 9.81862,10.56436 19.26706,18.51537 30.96057,28.03707 11.89663,9.68709 19.92749,16.25579 27.41391,24.19109 6.54073,6.93293 9.72858,11.99951 9.72858,11.99951 l 1.07006,-0.67336 c 0,0 -3.26807,-5.18598 -9.87938,-12.19372 z m -2.57553,2.12866 C 164.7441,141.86303 156.11644,135.5099 143.49751,126.40238 131.1236,117.47168 121.17667,110.01758 111.64903,99.547951 102.62775,89.634758 96.458065,79.558409 90.839828,70.486375 l -1.074169,0.666424 c 5.615656,9.067887 11.833891,19.228372 20.949011,29.244691 9.62135,10.57258 19.65694,18.09163 32.04084,27.02955 12.61432,9.10419 21.16405,15.40699 28.62495,23.49921 6.53632,7.08938 9.30221,12.65447 9.30221,12.65447 l 1.13157,-0.56115 c 0,0 -2.86492,-5.74934 -9.50491,-12.95118 z m -2.27328,2.40939 c -7.44877,-8.33484 -16.52239,-14.35299 -29.8483,-22.83087 -13.0613,-8.30955 -23.67164,-15.32497 -33.13447,-25.86053 C 98.049464,93.761867 92.660985,83.17764 87.959253,73.54829 l -1.135678,0.554208 c 4.70845,9.643102 10.15658,20.362131 19.288485,30.529232 9.5903,10.67749 20.32556,17.76563 33.39698,26.08163 13.31641,8.47183 22.27421,14.42582 29.58442,22.60561 6.41596,7.17921 8.68163,13.21578 8.68163,13.21578 l 1.18202,-0.44621 c 0,0 -2.36807,-6.27823 -8.92106,-13.61076 z m -2.21556,2.45667 C 160.56027,146.54401 151.15042,140.95707 137.1459,133.13465 123.428,125.47233 112.08503,118.8633 102.57131,108.176 93.482292,97.965786 88.757223,86.760691 85.026575,76.543619 l -1.187473,0.435133 c 3.746466,10.260397 8.538556,21.646352 17.788248,32.037058 9.67327,10.86653 21.17286,17.55447 34.90178,25.22293 13.99098,7.81486 23.24848,13.33029 30.33643,21.52165 6.22144,7.18996 7.95688,13.64113 7.95688,13.64113 l 1.22,-0.32998 c 0,0 -1.8306,-6.75076 -8.22195,-14.13709 z m -2.12505,2.56768 c -7.00489,-8.39056 -16.66327,-13.48998 -31.30406,-20.6502 C 120.05628,129.84121 107.94072,123.60506 98.272229,112.7034 89.002601,102.25147 84.823592,90.363994 82.082823,79.544402 l -1.225434,0.310621 c 2.761769,10.902452 7.009286,23.019977 16.469504,33.686807 9.857377,11.11462 22.161677,17.42652 36.509707,24.44355 14.62454,7.15227 24.08914,12.18266 30.8888,20.32741 5.96276,7.14232 7.14852,13.95691 7.14852,13.95691 l 1.24422,-0.2166 c 0,0 -1.25779,-7.16652 -7.4227,-14.55097 z m -2.07315,2.67019 C 156.9236,151.82621 147.10203,147.24324 131.87901,140.73356 116.97741,134.36135 104.06926,128.46302 94.161946,117.30232 84.633538,106.56849 80.89374,93.96486 79.130798,82.542377 l -1.250994,0.193078 c 1.782683,11.550427 5.591254,24.426835 15.336807,35.405285 10.122179,11.40272 23.247639,17.37509 38.165439,23.75422 15.20587,6.50235 24.79188,11.01754 31.25374,19.06858 5.65658,7.04771 6.29233,14.18262 6.29233,14.18262 l 1.25882,-0.11297 c 0,0 -0.67495,-7.52274 -6.56465,-14.86092 z m -2.20514,2.56445 C 154.98776,154.5278 145.0608,150.5242 129.30715,144.63005 113.90414,138.86709 100.23753,133.22452 90.08437,121.73708 80.291061,110.65675 76.939009,97.296264 76.151234,85.284698 l -1.261411,0.08253 c 0.799108,12.184343 4.214015,25.854612 14.246465,37.205492 10.389538,11.75489 24.302652,17.46945 39.729022,23.24115 15.73995,5.88901 25.39524,9.83562 31.55712,17.70303 5.37362,6.86096 5.52845,14.20725 5.52845,14.20725 l 1.26523,-0.0259 c 0,0 -0.16133,-7.7637 -5.79896,-14.96149 z m -2.06986,2.82075 c -2.73759,-3.64106 -6.67857,-6.71074 -12.34638,-9.48578 -5.73505,-2.80795 -12.26258,-4.8906 -19.89911,-7.3967 C 111.25788,143.4755 96.831239,138.07609 86.339031,126.27732 76.193285,114.86815 73.098195,100.80176 73.205051,88.227462 l -1.263636,-0.01139 c -0.108682,12.790048 3.049889,27.201748 13.453653,38.901068 10.746911,12.08518 25.438062,17.54926 41.311762,22.75856 7.64175,2.50781 14.12309,4.58251 19.73927,7.33226 5.54545,2.71513 9.29855,5.66033 11.89139,9.10887 5.0307,6.69096 4.6885,14.2494 4.6885,14.2494 l 1.26337,0.0584 c 0,0 0.38013,-7.98841 -4.94207,-15.06705 z m -4.27915,0.33312 c -2.43233,-2.44902 -5.65499,-4.57237 -9.89834,-6.48716 -5.73335,-2.58717 -12.33657,-4.41014 -20.16426,-6.67592 C 108.79429,148.03511 93.652802,142.83769 82.790328,130.72754 72.263056,118.99108 69.333339,104.25932 70.257543,91.160551 l -1.260431,-0.08871 c -0.942117,13.352659 2.052897,28.458639 12.853372,40.499679 11.131839,12.41044 26.554616,17.66624 42.802796,22.36937 7.83587,2.26815 14.39225,4.08544 19.99615,6.6142 5.5243,2.49282 9.1532,5.28087 11.56954,8.63607 4.68366,6.50348 3.88625,14.22129 3.88625,14.22129 l 1.25602,0.13428 c 0,0 0.88236,-8.1517 -4.1174,-15.0941 -0.64339,-0.89337 -1.36505,-1.74553 -2.1757,-2.56199 z m -2.04759,3.02666 c -2.33161,-2.36991 -5.48805,-4.3769 -9.70558,-6.13942 -5.70788,-2.38533 -12.35067,-3.97494 -20.33234,-6.03192 -16.49982,-4.25218 -32.294942,-9.29333 -43.544125,-21.70242 -10.92383,-12.05019 -13.775841,-27.3846 -12.128429,-40.958179 l -1.254533,-0.152219 c -1.682218,13.860308 1.238556,29.594138 12.447239,41.958548 11.529703,12.71853 27.619188,17.81522 44.163468,22.07887 7.99299,2.05988 14.59187,3.6454 20.16141,5.97293 5.48044,2.29028 8.97387,4.92795 11.21719,8.18519 4.34404,6.30745 3.13955,14.1383 3.13955,14.1383 l 1.24875,0.19637 c 0,0 1.33388,-8.2545 -3.34699,-15.05101 -0.60277,-0.8752 -1.28836,-1.70511 -2.06561,-2.49504 z m -2.11838,3.09115 c -2.2299,-2.29534 -5.31084,-4.19774 -9.48502,-5.82741 -5.659,-2.20935 -12.30627,-3.60184 -20.40175,-5.4854 C 104.30995,156.8088 87.936765,151.88281 76.29337,139.20191 64.966529,126.86577 62.105214,111.00999 64.362555,97.02121 l -1.24736,-0.200508 c -2.308111,14.303428 0.627857,30.579388 12.24795,43.234908 11.931835,12.99506 28.607815,17.97286 45.364815,21.87169 8.10991,1.88692 14.71614,3.27808 20.22944,5.43056 5.41472,2.11399 8.7673,4.61334 10.84388,7.77426 4.01767,6.1155 2.46077,14.01561 2.46077,14.01561 l 1.2374,0.25157 c 0,0 1.72846,-8.30775 -2.64179,-14.95997 -0.56313,-0.85716 -1.21219,-1.66577 -1.95549,-2.43088 z m -2.21121,3.14448 c -2.12926,-2.22866 -5.12829,-4.04098 -9.24349,-5.56085 -5.58861,-2.06406 -12.20674,-3.29992 -20.37387,-5.04881 C 102.24852,160.94038 85.382676,156.08504 73.349591,143.16946 61.624777,130.58477 58.670578,114.30501 61.41081,99.969473 l -1.240233,-0.237764 c -2.804924,14.673971 0.232271,31.393241 12.255649,44.298401 12.326416,13.23042 29.499144,18.13521 46.382004,21.75048 8.18429,1.75255 14.76457,2.98866 20.20153,4.99671 5.3296,1.9684 8.5373,4.34703 10.45786,7.41711 3.71316,5.93555 1.8664,13.86166 1.8664,13.86166 l 1.22885,0.29571 c 0,0 2.05336,-8.31272 -2.02243,-14.82795 -0.52548,-0.83997 -1.13975,-1.62801 -1.84948,-2.3709 z m -2.33158,3.17832 c -2.03407,-2.17021 -4.94926,-3.91168 -8.99335,-5.34672 -5.50104,-1.95204 -12.0594,-3.07035 -20.25557,-4.72635 C 100.2524,164.85207 82.99305,160.01915 70.590804,146.91019 58.488366,134.11816 55.36967,117.51683 58.460495,102.91083 l -1.235964,-0.26121 c -3.16677,14.96488 0.04504,32.01945 12.448378,45.12954 12.697532,13.42105 30.266476,18.29899 47.187381,21.7178 8.21558,1.65994 14.73826,2.78315 20.08318,4.67979 5.22986,1.85579 8.29947,4.13347 10.08116,7.11937 3.44273,5.76962 1.37578,13.67655 1.37578,13.67655 l 1.22039,0.3288 c 0,0 2.29881,-8.26748 -1.51106,-14.65238 -0.49142,-0.82355 -1.07232,-1.59445 -1.75036,-2.31784 z m -2.49861,3.16768 c -1.95463,-2.11446 -4.79028,-3.79517 -8.7596,-5.16859 -5.4083,-1.87132 -11.88762,-2.91734 -20.07441,-4.52643 C 98.217446,168.50007 80.677723,163.62604 67.956622,150.35471 55.525356,137.38573 52.200524,120.56465 55.527205,105.77219 l -1.2331,-0.27778 c -3.411391,15.16915 0.01868,32.45268 12.750122,45.73481 13.015324,13.57828 30.862872,18.49787 47.739243,21.8149 8.2082,1.61329 14.6534,2.66469 19.90342,4.48124 5.12761,1.7742 8.07487,3.96655 9.74836,6.86887 3.23139,5.60416 1.04304,13.42053 1.04304,13.42054 l 1.21333,0.35223 c 0,0 2.43869,-8.16047 -1.16167,-14.40454 -0.46469,-0.80589 -1.01764,-1.5587 -1.66918,-2.26353 z m -2.57923,3.25562 c -1.87001,-2.0834 -4.61756,-3.73612 -8.49215,-5.0842 -5.2836,-1.83831 -11.65265,-2.86609 -19.77781,-4.46809 C 96.344623,171.91609 78.625892,166.99142 65.58714,153.64191 52.82905,140.57974 49.19081,123.67699 52.561305,108.78114 l -1.234473,-0.27916 c -3.459295,15.28827 0.300826,32.6563 13.356151,46.02279 13.329695,13.64738 31.350466,18.61815 48.085317,21.91769 8.14699,1.60631 14.48295,2.63927 19.60543,4.42154 4.99823,1.73902 7.81858,3.88315 9.38731,6.73145 3.02931,5.50025 0.75689,13.22552 0.75689,13.22552 l 1.21047,0.36879 c 0,0 2.52986,-8.04977 -0.86036,-14.20531 -0.43762,-0.79456 -0.96316,-1.53543 -1.5865,-2.2299 z m -2.76691,3.22969 c -1.80504,-2.057 -4.47274,-3.69737 -8.25345,-5.04555 -5.1585,-1.83949 -11.40164,-2.89182 -19.42801,-4.53377 C 94.385522,175.04028 76.609194,170.00023 63.320303,156.61068 50.300464,143.49229 46.320026,126.61701 49.613824,111.70871 l -1.234501,-0.27364 c -3.38357,15.3146 0.732419,32.65338 14.043689,46.0654 13.573786,13.6766 31.640982,18.76344 48.155838,22.14184 8.04805,1.64637 14.26029,2.70401 19.25704,4.48582 4.87232,1.73745 7.5925,3.85342 9.0922,6.65244 2.89568,5.40443 0.64232,12.97349 0.64232,12.97349 l 1.20908,0.37293 c 0,0 2.5097,-7.88153 -0.73758,-13.94219 -0.41929,-0.78257 -0.92561,-1.5149 -1.52728,-2.20056 z m -2.92576,3.23291 c -1.75362,-2.0425 -4.34734,-3.69292 -8.03094,-5.0705 -5.02601,-1.87963 -11.12894,-3.00319 -19.01671,-4.72891 C 92.389968,177.88413 74.673249,172.68198 61.188988,159.30815 47.960358,146.18785 43.595882,129.45858 46.669159,114.628 l -1.23599,-0.25569 c -3.159975,15.24894 1.355049,32.43289 14.866766,45.83396 13.760612,13.64792 31.756516,18.89699 47.971795,22.44462 7.90819,1.73018 13.97935,2.86016 18.84436,4.67958 4.74375,1.77405 7.38009,3.88925 8.83809,6.65372 2.81519,5.3378 0.66593,12.70848 0.66593,12.70848 l 1.20912,0.36464 c 0,0 2.3973,-7.68094 -0.75714,-13.66196 -0.40742,-0.77249 -0.89867,-1.49736 -1.48322,-2.1782 z m -3.08593,3.22923 c -1.71713,-2.04 -4.24208,-3.72075 -7.82743,-5.15634 -4.88919,-1.95767 -10.83977,-3.19911 -18.5522,-5.0508 C 90.339921,180.4498 72.798459,175.04246 59.179356,161.73975 45.800013,148.67125 41.016055,132.20662 43.728653,117.54318 l -1.24304,-0.2295 c -2.791835,15.09175 2.159958,31.99671 15.811556,45.33115 13.884466,13.56191 31.690239,19.01847 47.531831,22.8219 7.73047,1.85601 13.64641,3.10448 18.3771,4.99868 4.61558,1.8481 7.19122,3.98734 8.63598,6.73267 2.78992,5.30138 0.82217,12.43868 0.82217,12.43868 l 1.21475,0.34809 c 0,0 2.19526,-7.4579 -0.91899,-13.37561 -0.40234,-0.7645 -0.8847,-1.48286 -1.45707,-2.16286 z m -3.43247,2.9676 c -1.80789,-2.12927 -4.28654,-3.71113 -7.5723,-5.09273 -4.38101,-1.84214 -10.22714,-3.37349 -18.07599,-5.48586 C 88.056596,182.7 70.800866,177.01014 57.148375,163.79973 43.715049,150.80139 38.538788,134.68891 40.81679,120.28174 l -1.24876,-0.19638 c -2.346888,14.84284 3.010135,31.37484 16.702279,44.62362 13.904381,13.45414 31.406272,19.19762 46.823081,23.34678 7.85245,2.11335 13.67461,3.64819 17.91471,5.43108 4.2401,1.78288 6.86616,3.76824 8.54138,6.85365 2.85597,5.26015 1.18186,12.09133 1.18186,12.09133 l 1.22463,0.31087 c 0,0 1.87114,-7.1702 -1.29677,-13.00488 -0.45845,-0.84438 -0.9861,-1.61407 -1.58873,-2.32383 z m -3.3952,3.21088 c -1.80029,-2.15044 -4.22603,-3.8066 -7.42473,-5.29628 -4.26493,-1.98626 -9.9291,-3.71578 -17.5328,-6.03933 C 85.841225,184.74327 68.9763,178.76937 55.319742,165.73658 41.859829,152.89146 36.216991,137.2571 37.873586,123.18585 l -1.25594,-0.14808 c -1.708277,14.51021 4.125048,30.53501 17.828149,43.61221 13.892819,13.25827 30.986438,19.28871 45.903165,23.84699 7.60336,2.32345 13.24002,4.05413 17.37019,5.97762 4.13018,1.9235 6.73123,4.00282 8.45023,7.09207 2.94156,5.28628 1.59495,11.82853 1.59495,11.82853 l 1.23594,0.26398 c 0,0 1.50475,-6.89808 -1.72801,-12.70768 -0.46692,-0.83912 -0.9969,-1.60981 -1.59699,-2.32663 z m -5.5489,1.14622 c -1.47262,-1.28375 -3.22256,-2.42024 -5.29987,-3.49971 -4.15461,-2.15899 -9.6308,-4.12327 -16.966955,-6.69211 C 83.520073,186.55813 67.134841,180.26147 53.544858,167.45276 40.124301,154.80372 34.011397,139.74205 34.931811,126.08306 l -1.260444,-0.0859 c -0.949834,14.09552 5.360673,29.51473 19.006409,42.376 13.808331,13.01451 30.396614,19.3691 44.763353,24.39978 7.331291,2.56713 12.774301,4.52716 16.803011,6.62072 4.02872,2.09356 6.62769,4.28976 8.42088,7.39574 3.08294,5.33999 2.13085,11.57886 2.13085,11.57886 l 1.24876,0.19637 c 0,0 1.06544,-6.60384 -2.28492,-12.40702 -0.96524,-1.67188 -2.16071,-3.10272 -3.63334,-4.38648 z m -3.66815,3.12369 c -4.37645,-4.00144 -11.04184,-6.90297 -21.619024,-11.16729 -13.764247,-5.54922 -29.583899,-12.2051 -43.034978,-24.74895 -13.31496,-12.4169 -19.895697,-26.82949 -19.812755,-40.0079 l -1.263642,-0.009 c -0.08563,13.60443 6.695021,28.33175 20.214821,40.93968 13.649295,12.7287 29.645516,19.44246 43.423027,24.99702 14.083861,5.67807 20.891891,8.8422 24.684511,15.10994 3.27851,5.41816 2.77718,11.34089 2.77718,11.34089 l 1.25893,0.10942 c 0,0 0.56512,-6.29032 -2.95372,-12.10564 -1.01023,-1.66952 -2.21554,-3.12471 -3.67435,-4.45853 z m -3.77039,3.13139 C 108.30605,203.82933 101.86215,200.49983 91.739207,195.79513 78.586458,189.68231 63.402754,182.64553 50.14833,170.41503 36.989439,158.27272 29.931001,144.58567 29.058903,131.94662 l -1.261439,0.088 c 0.899967,13.04301 8.150935,26.9986 21.492016,39.30905 13.430317,12.39278 28.765573,19.48384 41.916962,25.59603 13.468888,6.25975 20.135618,9.97764 24.167868,16.33202 3.5098,5.531 3.49644,11.15441 3.49644,11.15441 l 1.26367,0.006 c 0,0 0.0261,-5.97588 -3.69278,-11.83643 -1.06251,-1.67439 -2.29322,-3.17053 -3.75382,-4.56947 z m -3.93846,3.05584 C 104.31706,206.68515 98.063776,202.90924 88.391353,197.73706 75.858168,191.03516 61.350885,183.56383 48.385828,171.65756 35.463519,159.79053 27.98459,146.86445 26.124212,134.81211 l -1.248234,0.19309 c 1.917373,12.42158 9.575226,25.5707 22.655139,37.58246 13.116839,12.04565 27.744385,19.56857 40.264106,26.26329 12.861867,6.87768 19.447747,11.179 23.790377,17.61702 3.80591,5.64233 4.33451,10.95483 4.33451,10.95483 l 1.25751,-0.12538 c 0,0 -0.56148,-5.63213 -4.54386,-11.53609 -1.13198,-1.67818 -2.40695,-3.21372 -3.88439,-4.67933 z m -4.02948,3.03323 C 100.20553,209.50964 94.110162,205.27606 84.884957,199.62698 72.979014,192.33633 59.167428,184.38321 46.568531,172.82244 33.942743,161.23701 26.084381,149.09988 23.186802,137.66929 l -1.224053,0.31201 c 2.978744,11.75078 10.992593,24.06668 23.749684,35.7726 12.725058,11.67655 26.629553,19.67377 38.513089,26.95069 12.26238,7.50892 18.819078,12.41635 23.512048,18.94404 4.14333,5.76315 5.24292,10.77636 5.24292,10.77636 l 1.23487,-0.27052 c 0,0 -1.16615,-5.28222 -5.45154,-11.24298 -1.2109,-1.68428 -2.53914,-3.26106 -4.04393,-4.79626 z m -4.09702,3.00935 C 95.99491,212.30905 90.018203,207.62158 81.225364,201.50084 69.948219,193.65077 56.811605,185.15957 44.661603,173.96332 32.387786,162.65297 24.209238,151.3071 20.246668,140.52094 l -1.1861,0.43653 c 4.057553,11.0447 12.367338,22.52856 24.744952,33.93456 12.249551,11.28798 25.44849,19.81484 36.698485,27.64601 11.686586,8.13509 18.275868,13.65554 23.349755,20.27171 4.51471,5.88704 6.20091,10.62027 6.20091,10.62027 l 1.1888,-0.42546 c 0,0 -1.76469,-4.93681 -6.38678,-10.96385 -1.29722,-1.69154 -2.69116,-3.31094 -4.23382,-4.91613 z m -4.215196,2.90649 C 91.628151,215.01778 85.716107,209.8971 77.320228,203.32356 66.670299,194.98524 54.116674,185.8463 42.523053,175.03383 30.659431,163.96954 22.248254,153.38404 17.240938,143.25068 l -1.132945,0.55974 c 5.101334,10.32363 13.615224,21.01276 25.554857,32.14794 11.666553,10.8805 24.255103,20.04329 34.878247,28.36064 11.162372,8.73954 17.855198,14.8513 23.341093,21.54087 4.91995,5.99947 7.19758,10.46164 7.19758,10.46164 l 1.12613,-0.57497 c 0,0 -2.35286,-4.59788 -7.34683,-10.68761 -1.391552,-1.69689 -2.858219,-3.35676 -4.451396,-5.02786 z m -9.448247,-2.37033 C 83.14997,213.96338 78.744795,209.95293 73.392117,205.29807 63.431451,196.63595 51.225332,186.63739 40.336425,176.30016 28.914754,165.45716 20.337054,155.58827 14.278669,146.10773 l -1.064592,0.68167 c 6.135498,9.6012 14.782348,19.5393 26.252519,30.42833 10.935769,10.38173 23.157361,20.39009 33.095546,29.03268 10.681174,9.28871 17.548836,15.97414 23.436481,22.7264 5.328417,6.11091 8.165047,10.34014 8.165047,10.34014 l 1.04954,-0.70524 c 0,0 -2.89147,-4.30375 -8.263775,-10.46501 -2.968023,-3.40388 -6.180551,-6.78859 -9.990008,-10.48596 z m -4.2475,2.7599 C 78.849024,216.54017 74.489125,212.2894 69.347237,207.40449 59.625997,198.16911 48.416349,187.94072 37.948604,177.7297 27.00552,167.05497 18.363855,157.81498 11.312226,148.97165 l -0.987855,0.78708 c 7.097833,8.90133 15.776082,18.17902 26.74204,28.87604 10.488577,10.23134 21.702287,20.46374 31.40963,29.68591 10.270287,9.75699 17.408953,16.96981 23.684724,23.74984 5.741097,6.20237 9.092415,10.22529 9.092415,10.22529 l 0.97002,-0.80788 c 0,0 -3.375213,-4.05415 -9.134926,-10.27665 -3.148395,-3.40137 -6.513436,-6.91016 -10.376347,-10.79064 z M 8.2647476,151.75639 7.3550884,152.6337 c 13.9033256,14.41177 39.0959566,39.80306 56.8643326,57.86815 18.913735,19.22955 34.038221,34.67292 34.038221,34.67292 l 0.902882,-0.88414 c 0,0 -15.123409,-15.44507 -34.038198,-34.67569 C 47.35032,191.54614 22.1536,166.15295 8.2648426,151.75649 Z"
       style="color:#000000;font-style:normal;font-variant:normal;font-weight:normal;font-stretch:normal;font-size:medium;line-height:normal;font-family:sans-serif;font-variant-ligatures:normal;font-variant-position:normal;font-variant-caps:normal;font-variant-numeric:normal;font-variant-alternates:normal;font-feature-settings:normal;text-indent:0;text-align:start;text-decoration:none;text-decoration-line:none;text-decoration-style:solid;text-decoration-color:#000000;letter-spacing:normal;word-spacing:normal;text-transform:none;writing-mode:lr-tb;direction:ltr;text-orientation:mixed;dominant-baseline:auto;baseline-shift:baseline;text-anchor:start;white-space:normal;shape-padding:0;clip-rule:nonzero;display:inline;overflow:visible;visibility:visible;opacity:0.7;isolation:auto;mix-blend-mode:normal;color-interpolation:sRGB;color-interpolation-filters:linearRGB;solid-color:#000000;solid-opacity:1;vector-effect:none;fill:url(#linearGradient5325);fill-opacity:1;fill-rule:nonzero;stroke:none;stroke-width:1.26374853;stroke-linecap:butt;stroke-linejoin:miter;stroke-miterlimit:4;stroke-dasharray:none;stroke-dashoffset:0;stroke-opacity:1;color-rendering:auto;image-rendering:auto;shape-rendering:auto;text-rendering:auto;enable-background:accumulate"
       inkscape:export-xdpi="96"
       inkscape:export-ydpi="96" />
  </g>
</svg>
