<?xml version="1.0" encoding="UTF-8" standalone="no"?>
<!-- Created with Inkscape (http://www.inkscape.org/) -->

<svg
   xmlns:dc="http://purl.org/dc/elements/1.1/"
   xmlns:cc="http://creativecommons.org/ns#"
   xmlns:rdf="http://www.w3.org/1999/02/22-rdf-syntax-ns#"
   xmlns:svg="http://www.w3.org/2000/svg"
   xmlns="http://www.w3.org/2000/svg"
   xmlns:sodipodi="http://sodipodi.sourceforge.net/DTD/sodipodi-0.dtd"
   xmlns:inkscape="http://www.inkscape.org/namespaces/inkscape"
   width="210mm"
   height="297mm"
   viewBox="0 0 210 297"
   version="1.1"
   id="svg8"
   inkscape:version="0.92.5 (2060ec1f9f, 2020-04-08)"
   sodipodi:docname="otapick_logo2.svg">
  <defs
     id="defs2" />
  <sodipodi:namedview
     id="base"
     pagecolor="#ffffff"
     bordercolor="#666666"
     borderopacity="1.0"
     inkscape:pageopacity="0.0"
     inkscape:pageshadow="2"
     inkscape:zoom="0.0875"
     inkscape:cx="1436.1846"
     inkscape:cy="990.11045"
     inkscape:document-units="mm"
     inkscape:current-layer="layer1"
     showgrid="false"
     inkscape:window-width="1920"
     inkscape:window-height="1017"
     inkscape:window-x="-8"
     inkscape:window-y="-8"
     inkscape:window-maximized="1" />
  <metadata
     id="metadata5">
    <rdf:RDF>
      <cc:Work
         rdf:about="">
        <dc:format>image/svg+xml</dc:format>
        <dc:type
           rdf:resource="http://purl.org/dc/dcmitype/StillImage" />
        <dc:title></dc:title>
      </cc:Work>
    </rdf:RDF>
  </metadata>
  <g
     inkscape:label="レイヤー 1"
     inkscape:groupmode="layer"
     id="layer1">
    <path
       style="opacity:1;fill:#a3ffac;fill-opacity:1;stroke-width:17.28572845;stroke-miterlimit:4;stroke-dasharray:none"
       d="M 3.1589763,26.364089 H 137.37835 c 12.31007,-0.53454 15.35623,18.73342 6.0907,24.09827 L 6.2151163,114.02389 c -11.9482,5.17758 -21.1822003,-2.49833 -21.1822003,-11.86577 V 41.517209 c 0,-7.80256 2.45766,-15.15312 18.1260603,-15.15312 z"
       id="rect4527"
       inkscape:connector-curvature="0"
       sodipodi:nodetypes="scccsss" />
    <path
       style="opacity:1;fill:#e027ff;fill-opacity:1;stroke-width:19.70237541;stroke-miterlimit:4;stroke-dasharray:none"
       d="m 370.72502,184.02805 v 134.21937 c 0.69445,12.31007 -24.33767,15.35623 -31.30745,6.0907 L 256.84112,187.08419 c -6.72649,-11.9482 3.24573,-21.1822 15.41551,-21.1822 h 78.7821 c 10.13675,0 19.68629,2.45766 19.68629,18.12606 z"
       id="rect4527-0-1-5"
       inkscape:connector-curvature="0"
       sodipodi:nodetypes="scccsss" />
    <path
       style="opacity:1;fill:#0cdcff;fill-opacity:1;stroke-width:19.70237732;stroke-miterlimit:4;stroke-dasharray:none"
       d="m 401.25461,165.74849 h 134.21937 c 12.31007,-0.69445 15.35623,24.33767 6.0907,31.30744 l -137.25393,82.57646 c -11.9482,6.72649 -21.1822,-3.24573 -21.1822,-15.41551 v -78.78211 c 0,-10.13674 2.45766,-19.68628 18.12606,-19.68628 z"
       id="rect4527-0-1-5-6"
       inkscape:connector-curvature="0"
       sodipodi:nodetypes="scccsss" />
    <path
       style="opacity:1;fill:#f592e1;fill-opacity:1;stroke-width:19.70237732;stroke-miterlimit:4;stroke-dasharray:none"
       d="M 384.30845,137.35539 V 3.136026 c -0.69445,-12.31007 24.33767,-15.35623 31.30744,-6.0907 l 82.57647,137.253924 c 6.72649,11.9482 -3.24573,21.1822 -15.41551,21.1822 h -78.78212 c -10.13674,0 -19.68628,-2.45766 -19.68628,-18.12606 z"
       id="rect4527-0-1-5-6-4"
       inkscape:connector-curvature="0"
       sodipodi:nodetypes="scccsss" />
    <path
       style="opacity:1;fill:#00f818;fill-opacity:1;stroke-width:19.70237732;stroke-miterlimit:4;stroke-dasharray:none"
       d="M 351.9109,150.29122 H 217.69154 c -12.31007,0.69445 -15.35623,-24.33767 -6.0907,-31.30744 L 348.85476,36.4073 c 11.9482,-6.72649 21.1822,3.24573 21.1822,15.41551 v 78.78213 c 0,10.13674 -2.45766,19.68628 -18.12606,19.68628 z"
       id="rect4527-0-1-5-6-4-4"
       inkscape:connector-curvature="0"
       sodipodi:nodetypes="scccsss" />
  </g>
</svg>
